<?xml version="1.0" encoding="UTF-8" standalone="no"?><svg xmlns="http://www.w3.org/2000/svg" xmlns:xlink="http://www.w3.org/1999/xlink" contentStyleType="text/css" height="814px" preserveAspectRatio="none" style="width:1006px;height:814px;background:#FFFFFF;" version="1.1" viewBox="0 0 1006 814" width="1006px" zoomAndPan="magnify"><defs/><g><!--MD5=[7cfcec95ce8c7b3cc21f2a5540b61e10]
class Area--><g id="elem_Area"><rect codeLine="3" fill="#F1F1F1" height="96.8906" id="Area" rx="2.5" ry="2.5" style="stroke:#181818;stroke-width:0.5;" width="97" x="669" y="115"/><ellipse cx="698.85" cy="131" fill="#A9DCDF" rx="11" ry="11" style="stroke:#181818;stroke-width:1.0;"/><path d="M698.9594,126.3438 L697.8031,131.4219 L700.1313,131.4219 L698.9594,126.3438 Z M697.475,124.1094 L700.4594,124.1094 L703.8188,136.5 L701.3656,136.5 L700.6,133.4375 L697.3188,133.4375 L696.5688,136.5 L694.1313,136.5 L697.475,124.1094 Z " fill="#000000"/><text fill="#000000" font-family="sans-serif" font-size="14" font-style="italic" lengthAdjust="spacing" textLength="32" x="716.15" y="135.8467">Area</text><line style="stroke:#181818;stroke-width:0.5;" x1="670" x2="765" y1="147" y2="147"/><text fill="#000000" font-family="sans-serif" font-size="14" lengthAdjust="spacing" textLength="84" x="675" y="163.9951">-area: String</text><text fill="#000000" font-family="sans-serif" font-size="14" lengthAdjust="spacing" textLength="66" x="675" y="180.292">-code: int</text><text fill="#000000" font-family="sans-serif" font-size="14" lengthAdjust="spacing" textLength="85" x="675" y="196.5889">-m49: String</text><line style="stroke:#181818;stroke-width:0.5;" x1="670" x2="765" y1="203.8906" y2="203.8906"/></g><!--MD5=[44a1b4afaef76c16e6c9ec4990ad0c8d]
class Item--><g id="elem_Item"><rect codeLine="9" fill="#F1F1F1" height="96.8906" id="Item" rx="2.5" ry="2.5" style="stroke:#181818;stroke-width:0.5;" width="96" x="450.5" y="272"/><ellipse cx="480.35" cy="288" fill="#A9DCDF" rx="11" ry="11" style="stroke:#181818;stroke-width:1.0;"/><path d="M480.4594,283.3438 L479.3031,288.4219 L481.6313,288.4219 L480.4594,283.3438 Z M478.975,281.1094 L481.9594,281.1094 L485.3188,293.5 L482.8656,293.5 L482.1,290.4375 L478.8188,290.4375 L478.0688,293.5 L475.6313,293.5 L478.975,281.1094 Z " fill="#000000"/><text fill="#000000" font-family="sans-serif" font-size="14" font-style="italic" lengthAdjust="spacing" textLength="31" x="497.65" y="292.8467">Item</text><line style="stroke:#181818;stroke-width:0.5;" x1="451.5" x2="545.5" y1="304" y2="304"/><text fill="#000000" font-family="sans-serif" font-size="14" lengthAdjust="spacing" textLength="66" x="456.5" y="320.9951">-code: int</text><text fill="#000000" font-family="sans-serif" font-size="14" lengthAdjust="spacing" textLength="79" x="456.5" y="337.292">-cpc: String</text><text fill="#000000" font-family="sans-serif" font-size="14" lengthAdjust="spacing" textLength="84" x="456.5" y="353.5889">-item: String</text><line style="stroke:#181818;stroke-width:0.5;" x1="451.5" x2="545.5" y1="360.8906" y2="360.8906"/></g><!--MD5=[95174e42ee347a14b6cb78d6855f19b5]
class Element--><g id="elem_Element"><rect codeLine="15" fill="#F1F1F1" height="80.5938" id="Element" rx="2.5" ry="2.5" style="stroke:#181818;stroke-width:0.5;" width="123" x="206" y="429"/><ellipse cx="236.3" cy="445" fill="#A9DCDF" rx="11" ry="11" style="stroke:#181818;stroke-width:1.0;"/><path d="M236.4094,440.3438 L235.2531,445.4219 L237.5813,445.4219 L236.4094,440.3438 Z M234.925,438.1094 L237.9094,438.1094 L241.2688,450.5 L238.8156,450.5 L238.05,447.4375 L234.7688,447.4375 L234.0188,450.5 L231.5813,450.5 L234.925,438.1094 Z " fill="#000000"/><text fill="#000000" font-family="sans-serif" font-size="14" font-style="italic" lengthAdjust="spacing" textLength="57" x="253.7" y="449.8467">Element</text><line style="stroke:#181818;stroke-width:0.5;" x1="207" x2="328" y1="461" y2="461"/><text fill="#000000" font-family="sans-serif" font-size="14" lengthAdjust="spacing" textLength="66" x="212" y="477.9951">-code: int</text><text fill="#000000" font-family="sans-serif" font-size="14" lengthAdjust="spacing" textLength="111" x="212" y="494.292">-element: String</text><line style="stroke:#181818;stroke-width:0.5;" x1="207" x2="328" y1="501.5938" y2="501.5938"/></g><!--MD5=[b8fcb75de1318f131cde05def2746fc4]
class ProductionData--><g id="elem_ProductionData"><rect codeLine="20" fill="#F1F1F1" height="64.2969" id="ProductionData" rx="2.5" ry="2.5" style="stroke:#181818;stroke-width:0.5;" width="139" x="22" y="570"/><ellipse cx="37" cy="586" fill="#ADD1B2" rx="11" ry="11" style="stroke:#181818;stroke-width:1.0;"/><path d="M39.9688,591.6406 Q39.3906,591.9375 38.75,592.0781 Q38.1094,592.2344 37.4063,592.2344 Q34.9063,592.2344 33.5781,590.5938 Q32.2656,588.9375 32.2656,585.8125 Q32.2656,582.6875 33.5781,581.0313 Q34.9063,579.375 37.4063,579.375 Q38.1094,579.375 38.75,579.5313 Q39.4063,579.6875 39.9688,579.9844 L39.9688,582.7031 Q39.3438,582.125 38.75,581.8594 Q38.1563,581.5781 37.5313,581.5781 Q36.1875,581.5781 35.5,582.6563 Q34.8125,583.7188 34.8125,585.8125 Q34.8125,587.9063 35.5,588.9844 Q36.1875,590.0469 37.5313,590.0469 Q38.1563,590.0469 38.75,589.7813 Q39.3438,589.5 39.9688,588.9219 L39.9688,591.6406 Z " fill="#000000"/><text fill="#000000" font-family="sans-serif" font-size="14" lengthAdjust="spacing" textLength="107" x="51" y="590.8467">ProductionData</text><line style="stroke:#181818;stroke-width:0.5;" x1="23" x2="160" y1="602" y2="602"/><text fill="#000000" font-family="sans-serif" font-size="14" lengthAdjust="spacing" textLength="60" x="28" y="618.9951">-year: int</text><line style="stroke:#181818;stroke-width:0.5;" x1="23" x2="160" y1="626.2969" y2="626.2969"/></g><!--MD5=[ff3d20c1112759d46dde2fcead238479]
class Value--><g id="elem_Value"><rect codeLine="24" fill="#F1F1F1" height="113.1875" id="Value" rx="2.5" ry="2.5" style="stroke:#181818;stroke-width:0.5;" width="169" x="7" y="694"/><ellipse cx="68.25" cy="710" fill="#ADD1B2" rx="11" ry="11" style="stroke:#181818;stroke-width:1.0;"/><path d="M71.2188,715.6406 Q70.6406,715.9375 70,716.0781 Q69.3594,716.2344 68.6563,716.2344 Q66.1563,716.2344 64.8281,714.5938 Q63.5156,712.9375 63.5156,709.8125 Q63.5156,706.6875 64.8281,705.0313 Q66.1563,703.375 68.6563,703.375 Q69.3594,703.375 70,703.5313 Q70.6563,703.6875 71.2188,703.9844 L71.2188,706.7031 Q70.5938,706.125 70,705.8594 Q69.4063,705.5781 68.7813,705.5781 Q67.4375,705.5781 66.75,706.6563 Q66.0625,707.7188 66.0625,709.8125 Q66.0625,711.9063 66.75,712.9844 Q67.4375,714.0469 68.7813,714.0469 Q69.4063,714.0469 70,713.7813 Q70.5938,713.5 71.2188,712.9219 L71.2188,715.6406 Z " fill="#000000"/><text fill="#000000" font-family="sans-serif" font-size="14" lengthAdjust="spacing" textLength="38" x="88.75" y="714.8467">Value</text><line style="stroke:#181818;stroke-width:0.5;" x1="8" x2="175" y1="726" y2="726"/><text fill="#000000" font-family="sans-serif" font-size="14" lengthAdjust="spacing" textLength="98" x="13" y="742.9951">-value: double</text><text fill="#000000" font-family="sans-serif" font-size="14" lengthAdjust="spacing" textLength="80" x="13" y="759.292">-unit: String</text><text fill="#000000" font-family="sans-serif" font-size="14" lengthAdjust="spacing" textLength="78" x="13" y="775.5889">-flag: String</text><text fill="#000000" font-family="sans-serif" font-size="14" lengthAdjust="spacing" textLength="157" x="13" y="791.8857">-flagDescription: String</text><line style="stroke:#181818;stroke-width:0.5;" x1="8" x2="175" y1="799.1875" y2="799.1875"/></g><!--MD5=[e9a58730c562b34349daa605d1ed6662]
class Container--><g id="elem_Container"><rect codeLine="32" fill="#F1F1F1" height="48" id="Container" rx="2.5" ry="2.5" style="stroke:#181818;stroke-width:0.5;" width="99" x="668" y="7"/><ellipse cx="683" cy="23" fill="#ADD1B2" rx="11" ry="11" style="stroke:#181818;stroke-width:1.0;"/><path d="M685.9688,28.6406 Q685.3906,28.9375 684.75,29.0781 Q684.1094,29.2344 683.4063,29.2344 Q680.9063,29.2344 679.5781,27.5938 Q678.2656,25.9375 678.2656,22.8125 Q678.2656,19.6875 679.5781,18.0313 Q680.9063,16.375 683.4063,16.375 Q684.1094,16.375 684.75,16.5313 Q685.4063,16.6875 685.9688,16.9844 L685.9688,19.7031 Q685.3438,19.125 684.75,18.8594 Q684.1563,18.5781 683.5313,18.5781 Q682.1875,18.5781 681.5,19.6563 Q680.8125,20.7188 680.8125,22.8125 Q680.8125,24.9063 681.5,25.9844 Q682.1875,27.0469 683.5313,27.0469 Q684.1563,27.0469 684.75,26.7813 Q685.3438,26.5 685.9688,25.9219 L685.9688,28.6406 Z " fill="#000000"/><text fill="#000000" font-family="sans-serif" font-size="14" lengthAdjust="spacing" textLength="67" x="697" y="27.8467">Container</text><line style="stroke:#181818;stroke-width:0.5;" x1="669" x2="766" y1="39" y2="39"/><line style="stroke:#181818;stroke-width:0.5;" x1="669" x2="766" y1="47" y2="47"/></g><!--MD5=[256f74ac2914a5f218a0b58574b5fa29]
class AreaByCode--><g id="elem_AreaByCode"><rect codeLine="42" fill="#F1F1F1" height="48" id="AreaByCode" rx="2.5" ry="2.5" style="stroke:#181818;stroke-width:0.5;" width="117" x="582" y="296.5"/><ellipse cx="597" cy="312.5" fill="#ADD1B2" rx="11" ry="11" style="stroke:#181818;stroke-width:1.0;"/><path d="M599.9688,318.1406 Q599.3906,318.4375 598.75,318.5781 Q598.1094,318.7344 597.4063,318.7344 Q594.9063,318.7344 593.5781,317.0938 Q592.2656,315.4375 592.2656,312.3125 Q592.2656,309.1875 593.5781,307.5313 Q594.9063,305.875 597.4063,305.875 Q598.1094,305.875 598.75,306.0313 Q599.4063,306.1875 599.9688,306.4844 L599.9688,309.2031 Q599.3438,308.625 598.75,308.3594 Q598.1563,308.0781 597.5313,308.0781 Q596.1875,308.0781 595.5,309.1563 Q594.8125,310.2188 594.8125,312.3125 Q594.8125,314.4063 595.5,315.4844 Q596.1875,316.5469 597.5313,316.5469 Q598.1563,316.5469 598.75,316.2813 Q599.3438,316 599.9688,315.4219 L599.9688,318.1406 Z " fill="#000000"/><text fill="#000000" font-family="sans-serif" font-size="14" lengthAdjust="spacing" textLength="85" x="611" y="317.3467">AreaByCode</text><line style="stroke:#181818;stroke-width:0.5;" x1="583" x2="698" y1="328.5" y2="328.5"/><line style="stroke:#181818;stroke-width:0.5;" x1="583" x2="698" y1="336.5" y2="336.5"/></g><!--MD5=[e22e74e657fa00d9ea3f9aba06481f5f]
class AreaByName--><g id="elem_AreaByName"><rect codeLine="43" fill="#F1F1F1" height="48" id="AreaByName" rx="2.5" ry="2.5" style="stroke:#181818;stroke-width:0.5;" width="120" x="734.5" y="296.5"/><ellipse cx="749.5" cy="312.5" fill="#ADD1B2" rx="11" ry="11" style="stroke:#181818;stroke-width:1.0;"/><path d="M752.4688,318.1406 Q751.8906,318.4375 751.25,318.5781 Q750.6094,318.7344 749.9063,318.7344 Q747.4063,318.7344 746.0781,317.0938 Q744.7656,315.4375 744.7656,312.3125 Q744.7656,309.1875 746.0781,307.5313 Q747.4063,305.875 749.9063,305.875 Q750.6094,305.875 751.25,306.0313 Q751.9063,306.1875 752.4688,306.4844 L752.4688,309.2031 Q751.8438,308.625 751.25,308.3594 Q750.6563,308.0781 750.0313,308.0781 Q748.6875,308.0781 748,309.1563 Q747.3125,310.2188 747.3125,312.3125 Q747.3125,314.4063 748,315.4844 Q748.6875,316.5469 750.0313,316.5469 Q750.6563,316.5469 751.25,316.2813 Q751.8438,316 752.4688,315.4219 L752.4688,318.1406 Z " fill="#000000"/><text fill="#000000" font-family="sans-serif" font-size="14" lengthAdjust="spacing" textLength="88" x="763.5" y="317.3467">AreaByName</text><line style="stroke:#181818;stroke-width:0.5;" x1="735.5" x2="853.5" y1="328.5" y2="328.5"/><line style="stroke:#181818;stroke-width:0.5;" x1="735.5" x2="853.5" y1="336.5" y2="336.5"/></g><!--MD5=[cc9b890662c0882cad76dd03e0b67580]
class AreaByM49--><g id="elem_AreaByM49"><rect codeLine="44" fill="#F1F1F1" height="48" id="AreaByM49" rx="2.5" ry="2.5" style="stroke:#181818;stroke-width:0.5;" width="110" x="889.5" y="296.5"/><ellipse cx="904.5" cy="312.5" fill="#ADD1B2" rx="11" ry="11" style="stroke:#181818;stroke-width:1.0;"/><path d="M907.4688,318.1406 Q906.8906,318.4375 906.25,318.5781 Q905.6094,318.7344 904.9063,318.7344 Q902.4063,318.7344 901.0781,317.0938 Q899.7656,315.4375 899.7656,312.3125 Q899.7656,309.1875 901.0781,307.5313 Q902.4063,305.875 904.9063,305.875 Q905.6094,305.875 906.25,306.0313 Q906.9063,306.1875 907.4688,306.4844 L907.4688,309.2031 Q906.8438,308.625 906.25,308.3594 Q905.6563,308.0781 905.0313,308.0781 Q903.6875,308.0781 903,309.1563 Q902.3125,310.2188 902.3125,312.3125 Q902.3125,314.4063 903,315.4844 Q903.6875,316.5469 905.0313,316.5469 Q905.6563,316.5469 906.25,316.2813 Q906.8438,316 907.4688,315.4219 L907.4688,318.1406 Z " fill="#000000"/><text fill="#000000" font-family="sans-serif" font-size="14" lengthAdjust="spacing" textLength="78" x="918.5" y="317.3467">AreaByM49</text><line style="stroke:#181818;stroke-width:0.5;" x1="890.5" x2="998.5" y1="328.5" y2="328.5"/><line style="stroke:#181818;stroke-width:0.5;" x1="890.5" x2="998.5" y1="336.5" y2="336.5"/></g><!--MD5=[096c1d353958632cd3573d38a361ab16]
class ItemByCode--><g id="elem_ItemByCode"><rect codeLine="46" fill="#F1F1F1" height="48" id="ItemByCode" rx="2.5" ry="2.5" style="stroke:#181818;stroke-width:0.5;" width="116" x="364.5" y="445.5"/><ellipse cx="379.5" cy="461.5" fill="#ADD1B2" rx="11" ry="11" style="stroke:#181818;stroke-width:1.0;"/><path d="M382.4688,467.1406 Q381.8906,467.4375 381.25,467.5781 Q380.6094,467.7344 379.9063,467.7344 Q377.4063,467.7344 376.0781,466.0938 Q374.7656,464.4375 374.7656,461.3125 Q374.7656,458.1875 376.0781,456.5313 Q377.4063,454.875 379.9063,454.875 Q380.6094,454.875 381.25,455.0313 Q381.9063,455.1875 382.4688,455.4844 L382.4688,458.2031 Q381.8438,457.625 381.25,457.3594 Q380.6563,457.0781 380.0313,457.0781 Q378.6875,457.0781 378,458.1563 Q377.3125,459.2188 377.3125,461.3125 Q377.3125,463.4063 378,464.4844 Q378.6875,465.5469 380.0313,465.5469 Q380.6563,465.5469 381.25,465.2813 Q381.8438,465 382.4688,464.4219 L382.4688,467.1406 Z " fill="#000000"/><text fill="#000000" font-family="sans-serif" font-size="14" lengthAdjust="spacing" textLength="84" x="393.5" y="466.3467">ItemByCode</text><line style="stroke:#181818;stroke-width:0.5;" x1="365.5" x2="479.5" y1="477.5" y2="477.5"/><line style="stroke:#181818;stroke-width:0.5;" x1="365.5" x2="479.5" y1="485.5" y2="485.5"/></g><!--MD5=[d9a39dc1736df04be607a6e95ba03ef9]
class ItemByName--><g id="elem_ItemByName"><rect codeLine="47" fill="#F1F1F1" height="48" id="ItemByName" rx="2.5" ry="2.5" style="stroke:#181818;stroke-width:0.5;" width="119" x="516" y="445.5"/><ellipse cx="531" cy="461.5" fill="#ADD1B2" rx="11" ry="11" style="stroke:#181818;stroke-width:1.0;"/><path d="M533.9688,467.1406 Q533.3906,467.4375 532.75,467.5781 Q532.1094,467.7344 531.4063,467.7344 Q528.9063,467.7344 527.5781,466.0938 Q526.2656,464.4375 526.2656,461.3125 Q526.2656,458.1875 527.5781,456.5313 Q528.9063,454.875 531.4063,454.875 Q532.1094,454.875 532.75,455.0313 Q533.4063,455.1875 533.9688,455.4844 L533.9688,458.2031 Q533.3438,457.625 532.75,457.3594 Q532.1563,457.0781 531.5313,457.0781 Q530.1875,457.0781 529.5,458.1563 Q528.8125,459.2188 528.8125,461.3125 Q528.8125,463.4063 529.5,464.4844 Q530.1875,465.5469 531.5313,465.5469 Q532.1563,465.5469 532.75,465.2813 Q533.3438,465 533.9688,464.4219 L533.9688,467.1406 Z " fill="#000000"/><text fill="#000000" font-family="sans-serif" font-size="14" lengthAdjust="spacing" textLength="87" x="545" y="466.3467">ItemByName</text><line style="stroke:#181818;stroke-width:0.5;" x1="517" x2="634" y1="477.5" y2="477.5"/><line style="stroke:#181818;stroke-width:0.5;" x1="517" x2="634" y1="485.5" y2="485.5"/></g><!--MD5=[1eb22b894ae866b9827c5e3aa2f6c3be]
class ItemByCPC--><g id="elem_ItemByCPC"><rect codeLine="48" fill="#F1F1F1" height="48" id="ItemByCPC" rx="2.5" ry="2.5" style="stroke:#181818;stroke-width:0.5;" width="108" x="670.5" y="445.5"/><ellipse cx="685.5" cy="461.5" fill="#ADD1B2" rx="11" ry="11" style="stroke:#181818;stroke-width:1.0;"/><path d="M688.4688,467.1406 Q687.8906,467.4375 687.25,467.5781 Q686.6094,467.7344 685.9063,467.7344 Q683.4063,467.7344 682.0781,466.0938 Q680.7656,464.4375 680.7656,461.3125 Q680.7656,458.1875 682.0781,456.5313 Q683.4063,454.875 685.9063,454.875 Q686.6094,454.875 687.25,455.0313 Q687.9063,455.1875 688.4688,455.4844 L688.4688,458.2031 Q687.8438,457.625 687.25,457.3594 Q686.6563,457.0781 686.0313,457.0781 Q684.6875,457.0781 684,458.1563 Q683.3125,459.2188 683.3125,461.3125 Q683.3125,463.4063 684,464.4844 Q684.6875,465.5469 686.0313,465.5469 Q686.6563,465.5469 687.25,465.2813 Q687.8438,465 688.4688,464.4219 L688.4688,467.1406 Z " fill="#000000"/><text fill="#000000" font-family="sans-serif" font-size="14" lengthAdjust="spacing" textLength="76" x="699.5" y="466.3467">ItemByCPC</text><line style="stroke:#181818;stroke-width:0.5;" x1="671.5" x2="777.5" y1="477.5" y2="477.5"/><line style="stroke:#181818;stroke-width:0.5;" x1="671.5" x2="777.5" y1="485.5" y2="485.5"/></g><!--MD5=[4d6a461d28bef07c900e5de1eaf3e031]
class ElementByCode--><g id="elem_ElementByCode"><rect codeLine="50" fill="#F1F1F1" height="48" id="ElementByCode" rx="2.5" ry="2.5" style="stroke:#181818;stroke-width:0.5;" width="143" x="196" y="578"/><ellipse cx="211" cy="594" fill="#ADD1B2" rx="11" ry="11" style="stroke:#181818;stroke-width:1.0;"/><path d="M213.9688,599.6406 Q213.3906,599.9375 212.75,600.0781 Q212.1094,600.2344 211.4063,600.2344 Q208.9063,600.2344 207.5781,598.5938 Q206.2656,596.9375 206.2656,593.8125 Q206.2656,590.6875 207.5781,589.0313 Q208.9063,587.375 211.4063,587.375 Q212.1094,587.375 212.75,587.5313 Q213.4063,587.6875 213.9688,587.9844 L213.9688,590.7031 Q213.3438,590.125 212.75,589.8594 Q212.1563,589.5781 211.5313,589.5781 Q210.1875,589.5781 209.5,590.6563 Q208.8125,591.7188 208.8125,593.8125 Q208.8125,595.9063 209.5,596.9844 Q210.1875,598.0469 211.5313,598.0469 Q212.1563,598.0469 212.75,597.7813 Q213.3438,597.5 213.9688,596.9219 L213.9688,599.6406 Z " fill="#000000"/><text fill="#000000" font-family="sans-serif" font-size="14" lengthAdjust="spacing" textLength="111" x="225" y="598.8467">ElementByCode</text><line style="stroke:#181818;stroke-width:0.5;" x1="197" x2="338" y1="610" y2="610"/><line style="stroke:#181818;stroke-width:0.5;" x1="197" x2="338" y1="618" y2="618"/></g><!--MD5=[a1584512917ccd697b37dcf38fbf733f]
class ElementByName--><g id="elem_ElementByName"><rect codeLine="51" fill="#F1F1F1" height="48" id="ElementByName" rx="2.5" ry="2.5" style="stroke:#181818;stroke-width:0.5;" width="146" x="374.5" y="578"/><ellipse cx="389.5" cy="594" fill="#ADD1B2" rx="11" ry="11" style="stroke:#181818;stroke-width:1.0;"/><path d="M392.4688,599.6406 Q391.8906,599.9375 391.25,600.0781 Q390.6094,600.2344 389.9063,600.2344 Q387.4063,600.2344 386.0781,598.5938 Q384.7656,596.9375 384.7656,593.8125 Q384.7656,590.6875 386.0781,589.0313 Q387.4063,587.375 389.9063,587.375 Q390.6094,587.375 391.25,587.5313 Q391.9063,587.6875 392.4688,587.9844 L392.4688,590.7031 Q391.8438,590.125 391.25,589.8594 Q390.6563,589.5781 390.0313,589.5781 Q388.6875,589.5781 388,590.6563 Q387.3125,591.7188 387.3125,593.8125 Q387.3125,595.9063 388,596.9844 Q388.6875,598.0469 390.0313,598.0469 Q390.6563,598.0469 391.25,597.7813 Q391.8438,597.5 392.4688,596.9219 L392.4688,599.6406 Z " fill="#000000"/><text fill="#000000" font-family="sans-serif" font-size="14" lengthAdjust="spacing" textLength="114" x="403.5" y="598.8467">ElementByName</text><line style="stroke:#181818;stroke-width:0.5;" x1="375.5" x2="519.5" y1="610" y2="610"/><line style="stroke:#181818;stroke-width:0.5;" x1="375.5" x2="519.5" y1="618" y2="618"/></g><!--MD5=[5870401109a993a56aba4161d22f2fd5]
reverse link Container to Area--><g id="link_Container_Area"><path codeLine="36" d="M717.5,68.04 C717.5,82.5 717.5,99.38 717.5,114.84 " fill="none" id="Container-backto-Area" style="stroke:#181818;stroke-width:1.0;"/><polygon fill="none" points="717.5,55.03,713.5,61.03,717.5,67.03,721.5,61.03,717.5,55.03" style="stroke:#181818;stroke-width:1.0;"/><text fill="#000000" font-family="sans-serif" font-size="13" lengthAdjust="spacing" textLength="8" x="708.475" y="75.1935">1</text><text fill="#000000" font-family="sans-serif" font-size="13" lengthAdjust="spacing" textLength="23" x="692.8828" y="104.0264">1..*</text></g><!--MD5=[6c29be40304d7b2cf38ce1d0afa91f78]
reverse link Area to Item--><g id="link_Area_Item"><path codeLine="37" d="M657.87,206.16 C629.53,226.02 595.21,250.16 564.5,272 C558.75,276.09 552.72,280.4 546.76,284.67 " fill="none" id="Area-backto-Item" style="stroke:#181818;stroke-width:1.0;"/><polygon fill="none" points="668.82,198.49,661.6107,198.6525,658.988,205.3698,666.1972,205.2072,668.82,198.49" style="stroke:#181818;stroke-width:1.0;"/><text fill="#000000" font-family="sans-serif" font-size="13" lengthAdjust="spacing" textLength="8" x="653.0826" y="199.6123">1</text><text fill="#000000" font-family="sans-serif" font-size="13" lengthAdjust="spacing" textLength="23" x="554.4168" y="276.2008">1..*</text></g><!--MD5=[d18904703c8c98976e20fa5fa8500b22]
reverse link Item to Element--><g id="link_Item_Element"><path codeLine="38" d="M439.27,359.19 C405.54,380.66 363.34,407.51 329.22,429.23 " fill="none" id="Item-backto-Element" style="stroke:#181818;stroke-width:1.0;"/><polygon fill="none" points="450.36,352.14,443.1506,351.9817,440.2317,358.5757,447.4411,358.7339,450.36,352.14" style="stroke:#181818;stroke-width:1.0;"/><text fill="#000000" font-family="sans-serif" font-size="13" lengthAdjust="spacing" textLength="8" x="434.3761" y="352.9219">1</text><text fill="#000000" font-family="sans-serif" font-size="13" lengthAdjust="spacing" textLength="23" x="337.2284" y="421.1015">1..*</text></g><!--MD5=[1b6b8f61202d195e1b09f9c6ba3727e9]
reverse link Element to ProductionData--><g id="link_Element_ProductionData"><path codeLine="39" d="M203.67,517.83 C180.28,535.17 154.42,554.34 133.43,569.91 " fill="none" id="Element-backto-ProductionData" style="stroke:#181818;stroke-width:1.0;"/><polygon fill="none" points="214.22,510.01,207.0179,510.3704,204.5806,517.1571,211.7827,516.7967,214.22,510.01" style="stroke:#181818;stroke-width:1.0;"/><text fill="#000000" font-family="sans-serif" font-size="13" lengthAdjust="spacing" textLength="8" x="197.091" y="529.7714">1</text><text fill="#000000" font-family="sans-serif" font-size="13" lengthAdjust="spacing" textLength="23" x="116.7062" y="558.7945">1..*</text></g><!--MD5=[7b8a78f78d3d6f1ca4af9de371d37525]
reverse link ProductionData to Value--><g id="link_ProductionData_Value"><path codeLine="40" d="M91.5,647.45 C91.5,662.09 91.5,678.56 91.5,693.93 " fill="none" id="ProductionData-backto-Value" style="stroke:#181818;stroke-width:1.0;"/><polygon fill="none" points="91.5,634.07,87.5,640.07,91.5,646.07,95.5,640.07,91.5,634.07" style="stroke:#181818;stroke-width:1.0;"/><text fill="#000000" font-family="sans-serif" font-size="13" lengthAdjust="spacing" textLength="8" x="82.675" y="654.2813">1</text><text fill="#000000" font-family="sans-serif" font-size="13" lengthAdjust="spacing" textLength="8" x="82.9875" y="682.7844">1</text></g><!--MD5=[ce0209fe1a542dc98569a71cd0d28211]
reverse link Area to AreaByCode--><g id="link_Area_AreaByCode"><path codeLine="53" d="M684.84,230.24 C673.15,253.77 660.73,278.78 652.01,296.33 " fill="none" id="Area-backto-AreaByCode" style="stroke:#181818;stroke-width:1.0;"/><polygon fill="none" points="678.6,227.07,693.77,212.27,691.14,233.3,678.6,227.07" style="stroke:#181818;stroke-width:1.0;"/></g><!--MD5=[6efa15bb694f9f1a0eab23876ed725bb]
reverse link Area to AreaByName--><g id="link_Area_AreaByName"><path codeLine="54" d="M750.16,230.24 C761.85,253.77 774.27,278.78 782.99,296.33 " fill="none" id="Area-backto-AreaByName" style="stroke:#181818;stroke-width:1.0;"/><polygon fill="none" points="743.86,233.3,741.23,212.27,756.4,227.07,743.86,233.3" style="stroke:#181818;stroke-width:1.0;"/></g><!--MD5=[6316904a32b66df9855e31e396a46007]
reverse link Area to AreaByM49--><g id="link_Area_AreaByM49"><path codeLine="55" d="M782.77,209.07 C824.52,237.57 876.96,273.39 910.61,296.36 " fill="none" id="Area-backto-AreaByM49" style="stroke:#181818;stroke-width:1.0;"/><polygon fill="none" points="778.77,214.81,766.2,197.75,786.66,203.25,778.77,214.81" style="stroke:#181818;stroke-width:1.0;"/></g><!--MD5=[6e17bb55d2301a69299beee231afb450]
reverse link Item to ItemByCode--><g id="link_Item_ItemByCode"><path codeLine="57" d="M464.58,387.11 C453.83,407.9 442.64,429.54 434.51,445.28 " fill="none" id="Item-backto-ItemByCode" style="stroke:#181818;stroke-width:1.0;"/><polygon fill="none" points="458.42,383.78,473.82,369.23,470.86,390.21,458.42,383.78" style="stroke:#181818;stroke-width:1.0;"/></g><!--MD5=[0a07581afb803209e583e45fc5d0a2b6]
reverse link Item to ItemByName--><g id="link_Item_ItemByName"><path codeLine="58" d="M532.87,387.11 C543.76,407.9 555.09,429.54 563.34,445.28 " fill="none" id="Item-backto-ItemByName" style="stroke:#181818;stroke-width:1.0;"/><polygon fill="none" points="526.58,390.19,523.5,369.23,538.98,383.7,526.58,390.19" style="stroke:#181818;stroke-width:1.0;"/></g><!--MD5=[8ab5d3cdcc87b549f55f2f2a7313b4bf]
reverse link Item to ItemByCPC--><g id="link_Item_ItemByCPC"><path codeLine="59" d="M563.12,368.07 C563.58,368.38 564.04,368.69 564.5,369 C605.27,396.3 653.19,425.77 685.89,445.49 " fill="none" id="Item-backto-ItemByCPC" style="stroke:#181818;stroke-width:1.0;"/><polygon fill="none" points="559.03,373.76,546.54,356.64,566.98,362.23,559.03,373.76" style="stroke:#181818;stroke-width:1.0;"/></g><!--MD5=[7a9d3c32efbcd1e188622f4e475a2932]
reverse link Element to ElementByCode--><g id="link_Element_ElementByCode"><path codeLine="61" d="M267.5,530.14 C267.5,547.11 267.5,564.59 267.5,577.94 " fill="none" id="Element-backto-ElementByCode" style="stroke:#181818;stroke-width:1.0;"/><polygon fill="none" points="260.5,530.01,267.5,510.01,274.5,530.01,260.5,530.01" style="stroke:#181818;stroke-width:1.0;"/></g><!--MD5=[fd17a447203dffeed2c1cf5ddbc9ee2a]
reverse link Element to ElementByName--><g id="link_Element_ElementByName"><path codeLine="62" d="M338.28,521.81 C365.06,541.23 394.24,562.38 415.69,577.94 " fill="none" id="Element-backto-ElementByName" style="stroke:#181818;stroke-width:1.0;"/><polygon fill="none" points="334.08,527.42,321.99,510.01,342.3,516.08,334.08,527.42" style="stroke:#181818;stroke-width:1.0;"/></g><!--MD5=[2bffcc2d71639a65a24df7136d7f3866]
@startuml CD
skinparam classAttributeIconSize 0

abstract Area {
  - area: String
  - code: int
  - m49: String
}

abstract Item {
  - code: int
  - cpc: String
  - item: String
}

abstract Element {
  - code: int
  - element: String
}

class ProductionData {
  - year: int
}

class Value {
  - value: double
  - unit: String
  - flag: String
  - flagDescription: String

}

class Container {

}

Container "1" o- - "1..*" Area
Area "1" o- - "1..*" Item
Item "1" o- - "1..*" Element
Element "1" o- - "1..*" ProductionData
ProductionData "1" o- - "1" Value

class AreaByCode {}
class AreaByName {}
class AreaByM49 {}

class ItemByCode {}
class ItemByName {}
class ItemByCPC {}

class ElementByCode {}
class ElementByName {}

Area <|- - AreaByCode
Area <|- - AreaByName
Area <|- - AreaByM49

Item <|- - ItemByCode
Item <|- - ItemByName
Item <|- - ItemByCPC

Element <|- - ElementByCode
Element <|- - ElementByName

@enduml

PlantUML version 1.2022.7(Mon Aug 22 18:01:30 WEST 2022)
(GPL source distribution)
Java Runtime: OpenJDK Runtime Environment
JVM: OpenJDK 64-Bit Server VM
Default Encoding: UTF-8
Language: en
Country: US
--></g></svg>