<?xml version="1.0" encoding="UTF-8" standalone="no"?><svg xmlns="http://www.w3.org/2000/svg" xmlns:xlink="http://www.w3.org/1999/xlink" contentStyleType="text/css" height="1710px" preserveAspectRatio="none" style="width:1319px;height:1710px;background:#FFFFFF;" version="1.1" viewBox="0 0 1319 1710" width="1319px" zoomAndPan="magnify"><defs/><g><!--MD5=[7cfcec95ce8c7b3cc21f2a5540b61e10]
class Area--><g id="elem_Area"><rect codeLine="3" fill="#F1F1F1" height="259.8594" id="Area" rx="2.5" ry="2.5" style="stroke:#181818;stroke-width:0.5;" width="209" x="877" y="229"/><ellipse cx="961.25" cy="245" fill="#A9DCDF" rx="11" ry="11" style="stroke:#181818;stroke-width:1.0;"/><path d="M961.3594,240.3438 L960.2031,245.4219 L962.5313,245.4219 L961.3594,240.3438 Z M959.875,238.1094 L962.8594,238.1094 L966.2188,250.5 L963.7656,250.5 L963,247.4375 L959.7188,247.4375 L958.9688,250.5 L956.5313,250.5 L959.875,238.1094 Z " fill="#000000"/><text fill="#000000" font-family="sans-serif" font-size="14" font-style="italic" lengthAdjust="spacing" textLength="32" x="981.75" y="249.8467">Area</text><line style="stroke:#181818;stroke-width:0.5;" x1="878" x2="1085" y1="261" y2="261"/><text fill="#000000" font-family="sans-serif" font-size="14" lengthAdjust="spacing" textLength="84" x="883" y="277.9951">-area: String</text><text fill="#000000" font-family="sans-serif" font-size="14" lengthAdjust="spacing" textLength="66" x="883" y="294.292">-code: int</text><text fill="#000000" font-family="sans-serif" font-size="14" lengthAdjust="spacing" textLength="85" x="883" y="310.5889">-m49: String</text><line style="stroke:#181818;stroke-width:0.5;" x1="878" x2="1085" y1="317.8906" y2="317.8906"/><text fill="#000000" font-family="sans-serif" font-size="14" lengthAdjust="spacing" textLength="125" x="883" y="334.8857">+getArea(): String</text><text fill="#000000" font-family="sans-serif" font-size="14" lengthAdjust="spacing" textLength="108" x="883" y="351.1826">+getCode(): int</text><text fill="#000000" font-family="sans-serif" font-size="14" lengthAdjust="spacing" textLength="124" x="883" y="367.4795">+getM49(): String</text><text fill="#000000" font-family="sans-serif" font-size="14" lengthAdjust="spacing" textLength="115" x="883" y="383.7764">+addItem(): void</text><text fill="#000000" font-family="sans-serif" font-size="14" lengthAdjust="spacing" textLength="114" x="883" y="400.0732">+getItem(): Item</text><text fill="#000000" font-family="sans-serif" font-size="14" lengthAdjust="spacing" textLength="100" x="883" y="416.3701">+clone(): Area</text><text fill="#000000" font-family="sans-serif" font-size="14" lengthAdjust="spacing" textLength="125" x="883" y="432.667">+toString(): String</text><text fill="#000000" font-family="sans-serif" font-size="14" lengthAdjust="spacing" textLength="133" x="883" y="448.9639">+equals(): boolean</text><text fill="#000000" font-family="sans-serif" font-size="14" lengthAdjust="spacing" textLength="197" x="883" y="465.2607">+getItems(): Iterable&lt;Item&gt;</text><text fill="#000000" font-family="sans-serif" font-size="14" lengthAdjust="spacing" textLength="193" x="883" y="481.5576">«abstract» compareTo(): int</text></g><!--MD5=[44a1b4afaef76c16e6c9ec4990ad0c8d]
class Item--><g id="elem_Item"><rect codeLine="21" fill="#F1F1F1" height="259.8594" id="Item" rx="2.5" ry="2.5" style="stroke:#181818;stroke-width:0.5;" width="263" x="527" y="549"/><ellipse cx="638.75" cy="565" fill="#A9DCDF" rx="11" ry="11" style="stroke:#181818;stroke-width:1.0;"/><path d="M638.8594,560.3438 L637.7031,565.4219 L640.0313,565.4219 L638.8594,560.3438 Z M637.375,558.1094 L640.3594,558.1094 L643.7188,570.5 L641.2656,570.5 L640.5,567.4375 L637.2188,567.4375 L636.4688,570.5 L634.0313,570.5 L637.375,558.1094 Z " fill="#000000"/><text fill="#000000" font-family="sans-serif" font-size="14" font-style="italic" lengthAdjust="spacing" textLength="31" x="659.25" y="569.8467">Item</text><line style="stroke:#181818;stroke-width:0.5;" x1="528" x2="789" y1="581" y2="581"/><text fill="#000000" font-family="sans-serif" font-size="14" lengthAdjust="spacing" textLength="66" x="533" y="597.9951">-code: int</text><text fill="#000000" font-family="sans-serif" font-size="14" lengthAdjust="spacing" textLength="79" x="533" y="614.292">-cpc: String</text><text fill="#000000" font-family="sans-serif" font-size="14" lengthAdjust="spacing" textLength="84" x="533" y="630.5889">-item: String</text><line style="stroke:#181818;stroke-width:0.5;" x1="528" x2="789" y1="637.8906" y2="637.8906"/><text fill="#000000" font-family="sans-serif" font-size="14" lengthAdjust="spacing" textLength="108" x="533" y="654.8857">+getCode(): int</text><text fill="#000000" font-family="sans-serif" font-size="14" lengthAdjust="spacing" textLength="121" x="533" y="671.1826">+getCpc(): String</text><text fill="#000000" font-family="sans-serif" font-size="14" lengthAdjust="spacing" textLength="124" x="533" y="687.4795">+getItem(): String</text><text fill="#000000" font-family="sans-serif" font-size="14" lengthAdjust="spacing" textLength="142" x="533" y="703.7764">+addElement(): void</text><text fill="#000000" font-family="sans-serif" font-size="14" lengthAdjust="spacing" textLength="168" x="533" y="720.0732">+getElement(): Element</text><text fill="#000000" font-family="sans-serif" font-size="14" lengthAdjust="spacing" textLength="99" x="533" y="736.3701">+clone(): Item</text><text fill="#000000" font-family="sans-serif" font-size="14" lengthAdjust="spacing" textLength="125" x="533" y="752.667">+toString(): String</text><text fill="#000000" font-family="sans-serif" font-size="14" lengthAdjust="spacing" textLength="133" x="533" y="768.9639">+equals(): boolean</text><text fill="#000000" font-family="sans-serif" font-size="14" lengthAdjust="spacing" textLength="251" x="533" y="785.2607">+getElements(): Iterable&lt;Element&gt;</text><text fill="#000000" font-family="sans-serif" font-size="14" lengthAdjust="spacing" textLength="193" x="533" y="801.5576">«abstract» compareTo(): int</text></g><!--MD5=[95174e42ee347a14b6cb78d6855f19b5]
class Element--><g id="elem_Element"><rect codeLine="41" fill="#F1F1F1" height="243.5625" id="Element" rx="2.5" ry="2.5" style="stroke:#181818;stroke-width:0.5;" width="280" x="186.5" y="869"/><ellipse cx="293.75" cy="885" fill="#A9DCDF" rx="11" ry="11" style="stroke:#181818;stroke-width:1.0;"/><path d="M293.8594,880.3438 L292.7031,885.4219 L295.0313,885.4219 L293.8594,880.3438 Z M292.375,878.1094 L295.3594,878.1094 L298.7188,890.5 L296.2656,890.5 L295.5,887.4375 L292.2188,887.4375 L291.4688,890.5 L289.0313,890.5 L292.375,878.1094 Z " fill="#000000"/><text fill="#000000" font-family="sans-serif" font-size="14" font-style="italic" lengthAdjust="spacing" textLength="57" x="314.25" y="889.8467">Element</text><line style="stroke:#181818;stroke-width:0.5;" x1="187.5" x2="465.5" y1="901" y2="901"/><text fill="#000000" font-family="sans-serif" font-size="14" lengthAdjust="spacing" textLength="66" x="192.5" y="917.9951">-code: int</text><text fill="#000000" font-family="sans-serif" font-size="14" lengthAdjust="spacing" textLength="111" x="192.5" y="934.292">-element: String</text><line style="stroke:#181818;stroke-width:0.5;" x1="187.5" x2="465.5" y1="941.5938" y2="941.5938"/><text fill="#000000" font-family="sans-serif" font-size="14" lengthAdjust="spacing" textLength="108" x="192.5" y="958.5889">+getCode(): int</text><text fill="#000000" font-family="sans-serif" font-size="14" lengthAdjust="spacing" textLength="151" x="192.5" y="974.8857">+getElement(): String</text><text fill="#000000" font-family="sans-serif" font-size="14" lengthAdjust="spacing" textLength="192" x="192.5" y="991.1826">+addProductionData(): void</text><text fill="#000000" font-family="sans-serif" font-size="14" lengthAdjust="spacing" textLength="268" x="192.5" y="1007.4795">+getProductionData(): ProductionData</text><text fill="#000000" font-family="sans-serif" font-size="14" lengthAdjust="spacing" textLength="186" x="192.5" y="1023.7764">+getMostRecentYear(): int</text><text fill="#000000" font-family="sans-serif" font-size="14" lengthAdjust="spacing" textLength="126" x="192.5" y="1040.0732">+clone(): Element</text><text fill="#000000" font-family="sans-serif" font-size="14" lengthAdjust="spacing" textLength="125" x="192.5" y="1056.3701">+toString(): String</text><text fill="#000000" font-family="sans-serif" font-size="14" lengthAdjust="spacing" textLength="133" x="192.5" y="1072.667">+equals(): boolean</text><text fill="#000000" font-family="sans-serif" font-size="14" lengthAdjust="spacing" textLength="229" x="192.5" y="1088.9639">+valueSumTimeInterval(): double</text><text fill="#000000" font-family="sans-serif" font-size="14" lengthAdjust="spacing" textLength="193" x="192.5" y="1105.2607">«abstract» compareTo(): int</text></g><!--MD5=[b8fcb75de1318f131cde05def2746fc4]
class ProductionData--><g id="elem_ProductionData"><rect codeLine="58" fill="#F1F1F1" height="227.2656" id="ProductionData" rx="2.5" ry="2.5" style="stroke:#181818;stroke-width:0.5;" width="213" x="7" y="1173"/><ellipse cx="55.75" cy="1189" fill="#ADD1B2" rx="11" ry="11" style="stroke:#181818;stroke-width:1.0;"/><path d="M58.7188,1194.6406 Q58.1406,1194.9375 57.5,1195.0781 Q56.8594,1195.2344 56.1563,1195.2344 Q53.6563,1195.2344 52.3281,1193.5938 Q51.0156,1191.9375 51.0156,1188.8125 Q51.0156,1185.6875 52.3281,1184.0313 Q53.6563,1182.375 56.1563,1182.375 Q56.8594,1182.375 57.5,1182.5313 Q58.1563,1182.6875 58.7188,1182.9844 L58.7188,1185.7031 Q58.0938,1185.125 57.5,1184.8594 Q56.9063,1184.5781 56.2813,1184.5781 Q54.9375,1184.5781 54.25,1185.6563 Q53.5625,1186.7188 53.5625,1188.8125 Q53.5625,1190.9063 54.25,1191.9844 Q54.9375,1193.0469 56.2813,1193.0469 Q56.9063,1193.0469 57.5,1192.7813 Q58.0938,1192.5 58.7188,1191.9219 L58.7188,1194.6406 Z " fill="#000000"/><text fill="#000000" font-family="sans-serif" font-size="14" lengthAdjust="spacing" textLength="107" x="76.25" y="1193.8467">ProductionData</text><line style="stroke:#181818;stroke-width:0.5;" x1="8" x2="219" y1="1205" y2="1205"/><text fill="#000000" font-family="sans-serif" font-size="14" lengthAdjust="spacing" textLength="60" x="13" y="1221.9951">-year: int</text><text fill="#000000" font-family="sans-serif" font-size="14" lengthAdjust="spacing" textLength="88" x="13" y="1238.292">-value: Value</text><line style="stroke:#181818;stroke-width:0.5;" x1="8" x2="219" y1="1245.5938" y2="1245.5938"/><text fill="#000000" font-family="sans-serif" font-size="14" lengthAdjust="spacing" textLength="102" x="13" y="1262.5889">+getYear(): int</text><text fill="#000000" font-family="sans-serif" font-size="14" lengthAdjust="spacing" textLength="140" x="13" y="1278.8857">+getValue(): double</text><text fill="#000000" font-family="sans-serif" font-size="14" lengthAdjust="spacing" textLength="121" x="13" y="1295.1826">+getUnit(): String</text><text fill="#000000" font-family="sans-serif" font-size="14" lengthAdjust="spacing" textLength="122" x="13" y="1311.4795">+getFlag(): String</text><text fill="#000000" font-family="sans-serif" font-size="14" lengthAdjust="spacing" textLength="201" x="13" y="1327.7764">+getFlagDescription(): String</text><text fill="#000000" font-family="sans-serif" font-size="14" lengthAdjust="spacing" textLength="176" x="13" y="1344.0732">+clone(): ProductionData</text><text fill="#000000" font-family="sans-serif" font-size="14" lengthAdjust="spacing" textLength="125" x="13" y="1360.3701">+toString(): String</text><text fill="#000000" font-family="sans-serif" font-size="14" lengthAdjust="spacing" textLength="133" x="13" y="1376.667">+equals(): boolean</text><text fill="#000000" font-family="sans-serif" font-size="14" lengthAdjust="spacing" textLength="127" x="13" y="1392.9639">+compareTo(): int</text></g><!--MD5=[ff3d20c1112759d46dde2fcead238479]
class Value--><g id="elem_Value"><rect codeLine="74" fill="#F1F1F1" height="243.5625" id="Value" rx="2.5" ry="2.5" style="stroke:#181818;stroke-width:0.5;" width="213" x="7" y="1460"/><ellipse cx="90.25" cy="1476" fill="#ADD1B2" rx="11" ry="11" style="stroke:#181818;stroke-width:1.0;"/><path d="M93.2188,1481.6406 Q92.6406,1481.9375 92,1482.0781 Q91.3594,1482.2344 90.6563,1482.2344 Q88.1563,1482.2344 86.8281,1480.5938 Q85.5156,1478.9375 85.5156,1475.8125 Q85.5156,1472.6875 86.8281,1471.0313 Q88.1563,1469.375 90.6563,1469.375 Q91.3594,1469.375 92,1469.5313 Q92.6563,1469.6875 93.2188,1469.9844 L93.2188,1472.7031 Q92.5938,1472.125 92,1471.8594 Q91.4063,1471.5781 90.7813,1471.5781 Q89.4375,1471.5781 88.75,1472.6563 Q88.0625,1473.7188 88.0625,1475.8125 Q88.0625,1477.9063 88.75,1478.9844 Q89.4375,1480.0469 90.7813,1480.0469 Q91.4063,1480.0469 92,1479.7813 Q92.5938,1479.5 93.2188,1478.9219 L93.2188,1481.6406 Z " fill="#000000"/><text fill="#000000" font-family="sans-serif" font-size="14" lengthAdjust="spacing" textLength="38" x="110.75" y="1480.8467">Value</text><line style="stroke:#181818;stroke-width:0.5;" x1="8" x2="219" y1="1492" y2="1492"/><text fill="#000000" font-family="sans-serif" font-size="14" lengthAdjust="spacing" textLength="98" x="13" y="1508.9951">-value: double</text><text fill="#000000" font-family="sans-serif" font-size="14" lengthAdjust="spacing" textLength="80" x="13" y="1525.292">-unit: String</text><text fill="#000000" font-family="sans-serif" font-size="14" lengthAdjust="spacing" textLength="78" x="13" y="1541.5889">-flag: String</text><text fill="#000000" font-family="sans-serif" font-size="14" lengthAdjust="spacing" textLength="157" x="13" y="1557.8857">-flagDescription: String</text><line style="stroke:#181818;stroke-width:0.5;" x1="8" x2="219" y1="1565.1875" y2="1565.1875"/><text fill="#000000" font-family="sans-serif" font-size="14" lengthAdjust="spacing" textLength="140" x="13" y="1582.1826">+getValue(): double</text><text fill="#000000" font-family="sans-serif" font-size="14" lengthAdjust="spacing" textLength="121" x="13" y="1598.4795">+getUnit(): String</text><text fill="#000000" font-family="sans-serif" font-size="14" lengthAdjust="spacing" textLength="122" x="13" y="1614.7764">+getFlag(): String</text><text fill="#000000" font-family="sans-serif" font-size="14" lengthAdjust="spacing" textLength="201" x="13" y="1631.0732">+getFlagDescription(): String</text><text fill="#000000" font-family="sans-serif" font-size="14" lengthAdjust="spacing" textLength="188" x="13" y="1647.3701">+setFlagDescription(): void</text><text fill="#000000" font-family="sans-serif" font-size="14" lengthAdjust="spacing" textLength="107" x="13" y="1663.667">+clone(): Value</text><text fill="#000000" font-family="sans-serif" font-size="14" lengthAdjust="spacing" textLength="125" x="13" y="1679.9639">+toString(): String</text><text fill="#000000" font-family="sans-serif" font-size="14" lengthAdjust="spacing" textLength="133" x="13" y="1696.2607">+equals(): boolean</text></g><!--MD5=[e9a58730c562b34349daa605d1ed6662]
class Container--><g id="elem_Container"><rect codeLine="92" fill="#F1F1F1" height="162.0781" id="Container" rx="2.5" ry="2.5" style="stroke:#181818;stroke-width:0.5;" width="276" x="843.5" y="7"/><ellipse cx="943.75" cy="23" fill="#ADD1B2" rx="11" ry="11" style="stroke:#181818;stroke-width:1.0;"/><path d="M946.7188,28.6406 Q946.1406,28.9375 945.5,29.0781 Q944.8594,29.2344 944.1563,29.2344 Q941.6563,29.2344 940.3281,27.5938 Q939.0156,25.9375 939.0156,22.8125 Q939.0156,19.6875 940.3281,18.0313 Q941.6563,16.375 944.1563,16.375 Q944.8594,16.375 945.5,16.5313 Q946.1563,16.6875 946.7188,16.9844 L946.7188,19.7031 Q946.0938,19.125 945.5,18.8594 Q944.9063,18.5781 944.2813,18.5781 Q942.9375,18.5781 942.25,19.6563 Q941.5625,20.7188 941.5625,22.8125 Q941.5625,24.9063 942.25,25.9844 Q942.9375,27.0469 944.2813,27.0469 Q944.9063,27.0469 945.5,26.7813 Q946.0938,26.5 946.7188,25.9219 L946.7188,28.6406 Z " fill="#000000"/><text fill="#000000" font-family="sans-serif" font-size="14" lengthAdjust="spacing" textLength="67" x="964.25" y="27.8467">Container</text><line style="stroke:#181818;stroke-width:0.5;" x1="844.5" x2="1118.5" y1="39" y2="39"/><line style="stroke:#181818;stroke-width:0.5;" x1="844.5" x2="1118.5" y1="47" y2="47"/><text fill="#000000" font-family="sans-serif" font-size="14" lengthAdjust="spacing" textLength="116" x="849.5" y="63.9951">+addArea(): void</text><text fill="#000000" font-family="sans-serif" font-size="14" lengthAdjust="spacing" textLength="116" x="849.5" y="80.292">+getArea(): Area</text><text fill="#000000" font-family="sans-serif" font-size="14" lengthAdjust="spacing" textLength="199" x="849.5" y="96.5889">+getAreas(): Iterable&lt;Area&gt;</text><text fill="#000000" font-family="sans-serif" font-size="14" lengthAdjust="spacing" textLength="135" x="849.5" y="112.8857">+getNOfAreas(): int</text><text fill="#000000" font-family="sans-serif" font-size="14" lengthAdjust="spacing" textLength="141" x="849.5" y="129.1826">+isEmpty(): boolean</text><text fill="#000000" font-family="sans-serif" font-size="14" lengthAdjust="spacing" textLength="264" x="849.5" y="145.4795">+getAreasWithConditions(): Container</text><text fill="#000000" font-family="sans-serif" font-size="14" lengthAdjust="spacing" textLength="133" x="849.5" y="161.7764">+equals(): boolean</text></g><!--MD5=[256f74ac2914a5f218a0b58574b5fa29]
class AreaByCode--><g id="elem_AreaByCode"><rect codeLine="110" fill="#F1F1F1" height="64.2969" id="AreaByCode" rx="2.5" ry="2.5" style="stroke:#181818;stroke-width:0.5;" width="139" x="825" y="647"/><ellipse cx="849.9" cy="663" fill="#ADD1B2" rx="11" ry="11" style="stroke:#181818;stroke-width:1.0;"/><path d="M852.8688,668.6406 Q852.2906,668.9375 851.65,669.0781 Q851.0094,669.2344 850.3063,669.2344 Q847.8063,669.2344 846.4781,667.5938 Q845.1656,665.9375 845.1656,662.8125 Q845.1656,659.6875 846.4781,658.0313 Q847.8063,656.375 850.3063,656.375 Q851.0094,656.375 851.65,656.5313 Q852.3063,656.6875 852.8688,656.9844 L852.8688,659.7031 Q852.2438,659.125 851.65,658.8594 Q851.0563,658.5781 850.4313,658.5781 Q849.0875,658.5781 848.4,659.6563 Q847.7125,660.7188 847.7125,662.8125 Q847.7125,664.9063 848.4,665.9844 Q849.0875,667.0469 850.4313,667.0469 Q851.0563,667.0469 851.65,666.7813 Q852.2438,666.5 852.8688,665.9219 L852.8688,668.6406 Z " fill="#000000"/><text fill="#000000" font-family="sans-serif" font-size="14" lengthAdjust="spacing" textLength="85" x="866.1" y="667.8467">AreaByCode</text><line style="stroke:#181818;stroke-width:0.5;" x1="826" x2="963" y1="679" y2="679"/><line style="stroke:#181818;stroke-width:0.5;" x1="826" x2="963" y1="687" y2="687"/><text fill="#000000" font-family="sans-serif" font-size="14" lengthAdjust="spacing" textLength="127" x="831" y="703.9951">+compareTo(): int</text></g><!--MD5=[e22e74e657fa00d9ea3f9aba06481f5f]
class AreaByName--><g id="elem_AreaByName"><rect codeLine="114" fill="#F1F1F1" height="64.2969" id="AreaByName" rx="2.5" ry="2.5" style="stroke:#181818;stroke-width:0.5;" width="139" x="999" y="647"/><ellipse cx="1022.55" cy="663" fill="#ADD1B2" rx="11" ry="11" style="stroke:#181818;stroke-width:1.0;"/><path d="M1025.5188,668.6406 Q1024.9406,668.9375 1024.3,669.0781 Q1023.6594,669.2344 1022.9563,669.2344 Q1020.4563,669.2344 1019.1281,667.5938 Q1017.8156,665.9375 1017.8156,662.8125 Q1017.8156,659.6875 1019.1281,658.0313 Q1020.4563,656.375 1022.9563,656.375 Q1023.6594,656.375 1024.3,656.5313 Q1024.9563,656.6875 1025.5188,656.9844 L1025.5188,659.7031 Q1024.8938,659.125 1024.3,658.8594 Q1023.7063,658.5781 1023.0813,658.5781 Q1021.7375,658.5781 1021.05,659.6563 Q1020.3625,660.7188 1020.3625,662.8125 Q1020.3625,664.9063 1021.05,665.9844 Q1021.7375,667.0469 1023.0813,667.0469 Q1023.7063,667.0469 1024.3,666.7813 Q1024.8938,666.5 1025.5188,665.9219 L1025.5188,668.6406 Z " fill="#000000"/><text fill="#000000" font-family="sans-serif" font-size="14" lengthAdjust="spacing" textLength="88" x="1038.45" y="667.8467">AreaByName</text><line style="stroke:#181818;stroke-width:0.5;" x1="1000" x2="1137" y1="679" y2="679"/><line style="stroke:#181818;stroke-width:0.5;" x1="1000" x2="1137" y1="687" y2="687"/><text fill="#000000" font-family="sans-serif" font-size="14" lengthAdjust="spacing" textLength="127" x="1005" y="703.9951">+compareTo(): int</text></g><!--MD5=[cc9b890662c0882cad76dd03e0b67580]
class AreaByM49--><g id="elem_AreaByM49"><rect codeLine="117" fill="#F1F1F1" height="64.2969" id="AreaByM49" rx="2.5" ry="2.5" style="stroke:#181818;stroke-width:0.5;" width="139" x="1173" y="647"/><ellipse cx="1201.05" cy="663" fill="#ADD1B2" rx="11" ry="11" style="stroke:#181818;stroke-width:1.0;"/><path d="M1204.0188,668.6406 Q1203.4406,668.9375 1202.8,669.0781 Q1202.1594,669.2344 1201.4563,669.2344 Q1198.9563,669.2344 1197.6281,667.5938 Q1196.3156,665.9375 1196.3156,662.8125 Q1196.3156,659.6875 1197.6281,658.0313 Q1198.9563,656.375 1201.4563,656.375 Q1202.1594,656.375 1202.8,656.5313 Q1203.4563,656.6875 1204.0188,656.9844 L1204.0188,659.7031 Q1203.3938,659.125 1202.8,658.8594 Q1202.2063,658.5781 1201.5813,658.5781 Q1200.2375,658.5781 1199.55,659.6563 Q1198.8625,660.7188 1198.8625,662.8125 Q1198.8625,664.9063 1199.55,665.9844 Q1200.2375,667.0469 1201.5813,667.0469 Q1202.2063,667.0469 1202.8,666.7813 Q1203.3938,666.5 1204.0188,665.9219 L1204.0188,668.6406 Z " fill="#000000"/><text fill="#000000" font-family="sans-serif" font-size="14" lengthAdjust="spacing" textLength="78" x="1217.95" y="667.8467">AreaByM49</text><line style="stroke:#181818;stroke-width:0.5;" x1="1174" x2="1311" y1="679" y2="679"/><line style="stroke:#181818;stroke-width:0.5;" x1="1174" x2="1311" y1="687" y2="687"/><text fill="#000000" font-family="sans-serif" font-size="14" lengthAdjust="spacing" textLength="127" x="1179" y="703.9951">+compareTo(): int</text></g><!--MD5=[096c1d353958632cd3573d38a361ab16]
class ItemByCode--><g id="elem_ItemByCode"><rect codeLine="121" fill="#F1F1F1" height="64.2969" id="ItemByCode" rx="2.5" ry="2.5" style="stroke:#181818;stroke-width:0.5;" width="139" x="502" y="959"/><ellipse cx="527.35" cy="975" fill="#ADD1B2" rx="11" ry="11" style="stroke:#181818;stroke-width:1.0;"/><path d="M530.3188,980.6406 Q529.7406,980.9375 529.1,981.0781 Q528.4594,981.2344 527.7563,981.2344 Q525.2563,981.2344 523.9281,979.5938 Q522.6156,977.9375 522.6156,974.8125 Q522.6156,971.6875 523.9281,970.0313 Q525.2563,968.375 527.7563,968.375 Q528.4594,968.375 529.1,968.5313 Q529.7563,968.6875 530.3188,968.9844 L530.3188,971.7031 Q529.6938,971.125 529.1,970.8594 Q528.5063,970.5781 527.8813,970.5781 Q526.5375,970.5781 525.85,971.6563 Q525.1625,972.7188 525.1625,974.8125 Q525.1625,976.9063 525.85,977.9844 Q526.5375,979.0469 527.8813,979.0469 Q528.5063,979.0469 529.1,978.7813 Q529.6938,978.5 530.3188,977.9219 L530.3188,980.6406 Z " fill="#000000"/><text fill="#000000" font-family="sans-serif" font-size="14" lengthAdjust="spacing" textLength="84" x="543.65" y="979.8467">ItemByCode</text><line style="stroke:#181818;stroke-width:0.5;" x1="503" x2="640" y1="991" y2="991"/><line style="stroke:#181818;stroke-width:0.5;" x1="503" x2="640" y1="999" y2="999"/><text fill="#000000" font-family="sans-serif" font-size="14" lengthAdjust="spacing" textLength="127" x="508" y="1015.9951">+compareTo(): int</text></g><!--MD5=[d9a39dc1736df04be607a6e95ba03ef9]
class ItemByName--><g id="elem_ItemByName"><rect codeLine="124" fill="#F1F1F1" height="64.2969" id="ItemByName" rx="2.5" ry="2.5" style="stroke:#181818;stroke-width:0.5;" width="139" x="676" y="959"/><ellipse cx="700" cy="975" fill="#ADD1B2" rx="11" ry="11" style="stroke:#181818;stroke-width:1.0;"/><path d="M702.9688,980.6406 Q702.3906,980.9375 701.75,981.0781 Q701.1094,981.2344 700.4063,981.2344 Q697.9063,981.2344 696.5781,979.5938 Q695.2656,977.9375 695.2656,974.8125 Q695.2656,971.6875 696.5781,970.0313 Q697.9063,968.375 700.4063,968.375 Q701.1094,968.375 701.75,968.5313 Q702.4063,968.6875 702.9688,968.9844 L702.9688,971.7031 Q702.3438,971.125 701.75,970.8594 Q701.1563,970.5781 700.5313,970.5781 Q699.1875,970.5781 698.5,971.6563 Q697.8125,972.7188 697.8125,974.8125 Q697.8125,976.9063 698.5,977.9844 Q699.1875,979.0469 700.5313,979.0469 Q701.1563,979.0469 701.75,978.7813 Q702.3438,978.5 702.9688,977.9219 L702.9688,980.6406 Z " fill="#000000"/><text fill="#000000" font-family="sans-serif" font-size="14" lengthAdjust="spacing" textLength="87" x="716" y="979.8467">ItemByName</text><line style="stroke:#181818;stroke-width:0.5;" x1="677" x2="814" y1="991" y2="991"/><line style="stroke:#181818;stroke-width:0.5;" x1="677" x2="814" y1="999" y2="999"/><text fill="#000000" font-family="sans-serif" font-size="14" lengthAdjust="spacing" textLength="127" x="682" y="1015.9951">+compareTo(): int</text></g><!--MD5=[1eb22b894ae866b9827c5e3aa2f6c3be]
class ItemByCPC--><g id="elem_ItemByCPC"><rect codeLine="127" fill="#F1F1F1" height="64.2969" id="ItemByCPC" rx="2.5" ry="2.5" style="stroke:#181818;stroke-width:0.5;" width="139" x="850" y="959"/><ellipse cx="878.95" cy="975" fill="#ADD1B2" rx="11" ry="11" style="stroke:#181818;stroke-width:1.0;"/><path d="M881.9188,980.6406 Q881.3406,980.9375 880.7,981.0781 Q880.0594,981.2344 879.3563,981.2344 Q876.8563,981.2344 875.5281,979.5938 Q874.2156,977.9375 874.2156,974.8125 Q874.2156,971.6875 875.5281,970.0313 Q876.8563,968.375 879.3563,968.375 Q880.0594,968.375 880.7,968.5313 Q881.3563,968.6875 881.9188,968.9844 L881.9188,971.7031 Q881.2938,971.125 880.7,970.8594 Q880.1063,970.5781 879.4813,970.5781 Q878.1375,970.5781 877.45,971.6563 Q876.7625,972.7188 876.7625,974.8125 Q876.7625,976.9063 877.45,977.9844 Q878.1375,979.0469 879.4813,979.0469 Q880.1063,979.0469 880.7,978.7813 Q881.2938,978.5 881.9188,977.9219 L881.9188,980.6406 Z " fill="#000000"/><text fill="#000000" font-family="sans-serif" font-size="14" lengthAdjust="spacing" textLength="76" x="896.05" y="979.8467">ItemByCPC</text><line style="stroke:#181818;stroke-width:0.5;" x1="851" x2="988" y1="991" y2="991"/><line style="stroke:#181818;stroke-width:0.5;" x1="851" x2="988" y1="999" y2="999"/><text fill="#000000" font-family="sans-serif" font-size="14" lengthAdjust="spacing" textLength="127" x="856" y="1015.9951">+compareTo(): int</text></g><!--MD5=[4d6a461d28bef07c900e5de1eaf3e031]
class ElementByCode--><g id="elem_ElementByCode"><rect codeLine="131" fill="#F1F1F1" height="64.2969" id="ElementByCode" rx="2.5" ry="2.5" style="stroke:#181818;stroke-width:0.5;" width="143" x="255" y="1254.5"/><ellipse cx="270" cy="1270.5" fill="#ADD1B2" rx="11" ry="11" style="stroke:#181818;stroke-width:1.0;"/><path d="M272.9688,1276.1406 Q272.3906,1276.4375 271.75,1276.5781 Q271.1094,1276.7344 270.4063,1276.7344 Q267.9063,1276.7344 266.5781,1275.0938 Q265.2656,1273.4375 265.2656,1270.3125 Q265.2656,1267.1875 266.5781,1265.5313 Q267.9063,1263.875 270.4063,1263.875 Q271.1094,1263.875 271.75,1264.0313 Q272.4063,1264.1875 272.9688,1264.4844 L272.9688,1267.2031 Q272.3438,1266.625 271.75,1266.3594 Q271.1563,1266.0781 270.5313,1266.0781 Q269.1875,1266.0781 268.5,1267.1563 Q267.8125,1268.2188 267.8125,1270.3125 Q267.8125,1272.4063 268.5,1273.4844 Q269.1875,1274.5469 270.5313,1274.5469 Q271.1563,1274.5469 271.75,1274.2813 Q272.3438,1274 272.9688,1273.4219 L272.9688,1276.1406 Z " fill="#000000"/><text fill="#000000" font-family="sans-serif" font-size="14" lengthAdjust="spacing" textLength="111" x="284" y="1275.3467">ElementByCode</text><line style="stroke:#181818;stroke-width:0.5;" x1="256" x2="397" y1="1286.5" y2="1286.5"/><line style="stroke:#181818;stroke-width:0.5;" x1="256" x2="397" y1="1294.5" y2="1294.5"/><text fill="#000000" font-family="sans-serif" font-size="14" lengthAdjust="spacing" textLength="127" x="261" y="1311.4951">+compareTo(): int</text></g><!--MD5=[a1584512917ccd697b37dcf38fbf733f]
class ElementByName--><g id="elem_ElementByName"><rect codeLine="134" fill="#F1F1F1" height="64.2969" id="ElementByName" rx="2.5" ry="2.5" style="stroke:#181818;stroke-width:0.5;" width="146" x="433.5" y="1254.5"/><ellipse cx="448.5" cy="1270.5" fill="#ADD1B2" rx="11" ry="11" style="stroke:#181818;stroke-width:1.0;"/><path d="M451.4688,1276.1406 Q450.8906,1276.4375 450.25,1276.5781 Q449.6094,1276.7344 448.9063,1276.7344 Q446.4063,1276.7344 445.0781,1275.0938 Q443.7656,1273.4375 443.7656,1270.3125 Q443.7656,1267.1875 445.0781,1265.5313 Q446.4063,1263.875 448.9063,1263.875 Q449.6094,1263.875 450.25,1264.0313 Q450.9063,1264.1875 451.4688,1264.4844 L451.4688,1267.2031 Q450.8438,1266.625 450.25,1266.3594 Q449.6563,1266.0781 449.0313,1266.0781 Q447.6875,1266.0781 447,1267.1563 Q446.3125,1268.2188 446.3125,1270.3125 Q446.3125,1272.4063 447,1273.4844 Q447.6875,1274.5469 449.0313,1274.5469 Q449.6563,1274.5469 450.25,1274.2813 Q450.8438,1274 451.4688,1273.4219 L451.4688,1276.1406 Z " fill="#000000"/><text fill="#000000" font-family="sans-serif" font-size="14" lengthAdjust="spacing" textLength="114" x="462.5" y="1275.3467">ElementByName</text><line style="stroke:#181818;stroke-width:0.5;" x1="434.5" x2="578.5" y1="1286.5" y2="1286.5"/><line style="stroke:#181818;stroke-width:0.5;" x1="434.5" x2="578.5" y1="1294.5" y2="1294.5"/><text fill="#000000" font-family="sans-serif" font-size="14" lengthAdjust="spacing" textLength="127" x="439.5" y="1311.4951">+compareTo(): int</text></g><!--MD5=[5870401109a993a56aba4161d22f2fd5]
reverse link Container to Area--><g id="link_Container_Area"><path codeLine="104" d="M981.5,182.37 C981.5,197.44 981.5,213.27 981.5,229 " fill="none" id="Container-backto-Area" style="stroke:#181818;stroke-width:1.0;"/><polygon fill="none" points="981.5,169.34,977.5,175.34,981.5,181.34,985.5,175.34,981.5,169.34" style="stroke:#181818;stroke-width:1.0;"/><text fill="#000000" font-family="sans-serif" font-size="13" lengthAdjust="spacing" textLength="8" x="973.1563" y="189.0439">1</text><text fill="#000000" font-family="sans-serif" font-size="13" lengthAdjust="spacing" textLength="23" x="957.8352" y="218.1256">1..*</text></g><!--MD5=[6c29be40304d7b2cf38ce1d0afa91f78]
reverse link Area to Item--><g id="link_Area_Item"><path codeLine="105" d="M867.12,472.61 C842.07,497.27 815.36,523.57 789.71,548.82 " fill="none" id="Area-backto-Item" style="stroke:#181818;stroke-width:1.0;"/><polygon fill="none" points="876.63,463.25,869.5471,464.6037,868.0725,471.6625,875.1554,470.3087,876.63,463.25" style="stroke:#181818;stroke-width:1.0;"/><text fill="#000000" font-family="sans-serif" font-size="13" lengthAdjust="spacing" textLength="8" x="860.9751" y="467.1292">1</text><text fill="#000000" font-family="sans-serif" font-size="13" lengthAdjust="spacing" textLength="23" x="773.6307" y="537.9352">1..*</text></g><!--MD5=[d18904703c8c98976e20fa5fa8500b22]
reverse link Item to Element--><g id="link_Item_Element"><path codeLine="106" d="M517.22,811.92 C496.94,830.85 476.17,850.25 456.13,868.96 " fill="none" id="Item-backto-Element" style="stroke:#181818;stroke-width:1.0;"/><polygon fill="none" points="526.81,802.97,519.6947,804.1416,518.0395,811.1602,525.1548,809.9886,526.81,802.97" style="stroke:#181818;stroke-width:1.0;"/><text fill="#000000" font-family="sans-serif" font-size="13" lengthAdjust="spacing" textLength="8" x="510.9654" y="806.7782">1</text><text fill="#000000" font-family="sans-serif" font-size="13" lengthAdjust="spacing" textLength="23" x="440.6977" y="857.7465">1..*</text></g><!--MD5=[1b6b8f61202d195e1b09f9c6ba3727e9]
reverse link Element to ProductionData--><g id="link_Element_ProductionData"><path codeLine="107" d="M230.87,1123.77 C219.02,1140.11 206.98,1156.7 195.35,1172.72 " fill="none" id="Element-backto-ProductionData" style="stroke:#181818;stroke-width:1.0;"/><polygon fill="none" points="238.64,1113.07,231.8766,1115.5714,231.5843,1122.7765,238.3477,1120.2752,238.64,1113.07" style="stroke:#181818;stroke-width:1.0;"/><text fill="#000000" font-family="sans-serif" font-size="13" lengthAdjust="spacing" textLength="8" x="225.3293" y="1132.6441">1</text><text fill="#000000" font-family="sans-serif" font-size="13" lengthAdjust="spacing" textLength="23" x="176.8568" y="1162.0131">1..*</text></g><!--MD5=[7b8a78f78d3d6f1ca4af9de371d37525]
reverse link ProductionData to Value--><g id="link_ProductionData_Value"><path codeLine="108" d="M113.5,1413.54 C113.5,1428.91 113.5,1444.59 113.5,1459.89 " fill="none" id="ProductionData-backto-Value" style="stroke:#181818;stroke-width:1.0;"/><polygon fill="none" points="113.5,1400.14,109.5,1406.14,113.5,1412.14,117.5,1406.14,113.5,1400.14" style="stroke:#181818;stroke-width:1.0;"/><text fill="#000000" font-family="sans-serif" font-size="13" lengthAdjust="spacing" textLength="8" x="105.2313" y="1420.3415">1</text><text fill="#000000" font-family="sans-serif" font-size="13" lengthAdjust="spacing" textLength="8" x="105.2563" y="1449.0762">1</text></g><!--MD5=[ce0209fe1a542dc98569a71cd0d28211]
reverse link Area to AreaByCode--><g id="link_Area_AreaByCode"><path codeLine="138" d="M940.79,508.8 C926.55,560.86 911.9,614.39 903,646.93 " fill="none" id="Area-backto-AreaByCode" style="stroke:#181818;stroke-width:1.0;"/><polygon fill="none" points="934.08,506.79,946.11,489.34,947.59,510.48,934.08,506.79" style="stroke:#181818;stroke-width:1.0;"/></g><!--MD5=[6efa15bb694f9f1a0eab23876ed725bb]
reverse link Area to AreaByName--><g id="link_Area_AreaByName"><path codeLine="139" d="M1022.21,508.8 C1036.45,560.86 1051.1,614.39 1060,646.93 " fill="none" id="Area-backto-AreaByName" style="stroke:#181818;stroke-width:1.0;"/><polygon fill="none" points="1015.41,510.48,1016.89,489.34,1028.92,506.79,1015.41,510.48" style="stroke:#181818;stroke-width:1.0;"/></g><!--MD5=[6316904a32b66df9855e31e396a46007]
reverse link Area to AreaByM49--><g id="link_Area_AreaByM49"><path codeLine="140" d="M1099.68,483.05 C1118.9,504.55 1138.17,527.07 1155.5,549 C1180.79,581 1206.51,620.13 1223.36,646.85 " fill="none" id="Area-backto-AreaByM49" style="stroke:#181818;stroke-width:1.0;"/><polygon fill="none" points="1094.27,487.5,1086.06,467.97,1104.66,478.12,1094.27,487.5" style="stroke:#181818;stroke-width:1.0;"/></g><!--MD5=[6e17bb55d2301a69299beee231afb450]
reverse link Item to ItemByCode--><g id="link_Item_ItemByCode"><path codeLine="142" d="M616.77,828.69 C602.99,877.81 588.96,927.78 580.25,958.81 " fill="none" id="Item-backto-ItemByCode" style="stroke:#181818;stroke-width:1.0;"/><polygon fill="none" points="610.09,826.59,622.23,809.22,623.57,830.37,610.09,826.59" style="stroke:#181818;stroke-width:1.0;"/></g><!--MD5=[0a07581afb803209e583e45fc5d0a2b6]
reverse link Item to ItemByName--><g id="link_Item_ItemByName"><path codeLine="143" d="M700.23,828.69 C714.01,877.81 728.04,927.78 736.75,958.81 " fill="none" id="Item-backto-ItemByName" style="stroke:#181818;stroke-width:1.0;"/><polygon fill="none" points="693.43,830.37,694.77,809.22,706.91,826.59,693.43,830.37" style="stroke:#181818;stroke-width:1.0;"/></g><!--MD5=[8ab5d3cdcc87b549f55f2f2a7313b4bf]
reverse link Item to ItemByCPC--><g id="link_Item_ItemByCPC"><path codeLine="144" d="M794.73,824.45 C807.74,839.29 820.53,854.31 832.5,869 C856.53,898.48 881.65,934 898.68,958.91 " fill="none" id="Item-backto-ItemByCPC" style="stroke:#181818;stroke-width:1.0;"/><polygon fill="none" points="789.14,828.69,781.12,809.08,799.62,819.41,789.14,828.69" style="stroke:#181818;stroke-width:1.0;"/></g><!--MD5=[7a9d3c32efbcd1e188622f4e475a2932]
reverse link Element to ElementByCode--><g id="link_Element_ElementByCode"><path codeLine="146" d="M326.5,1133.2 C326.5,1178.78 326.5,1225.07 326.5,1254.46 " fill="none" id="Element-backto-ElementByCode" style="stroke:#181818;stroke-width:1.0;"/><polygon fill="none" points="319.5,1133.07,326.5,1113.07,333.5,1133.07,319.5,1133.07" style="stroke:#181818;stroke-width:1.0;"/></g><!--MD5=[fd17a447203dffeed2c1cf5ddbc9ee2a]
reverse link Element to ElementByName--><g id="link_Element_ElementByName"><path codeLine="147" d="M411.22,1130.14 C439.77,1176.69 469.03,1224.41 487.46,1254.46 " fill="none" id="Element-backto-ElementByName" style="stroke:#181818;stroke-width:1.0;"/><polygon fill="none" points="405.24,1133.78,400.75,1113.07,417.18,1126.46,405.24,1133.78" style="stroke:#181818;stroke-width:1.0;"/></g><!--MD5=[cd8c53e2d3833e5edc0ca62a5f8b17f7]
@startuml CD
skinparam classAttributeIconSize 0

abstract Area {
  - area: String
  - code: int
  - m49: String

  + getArea(): String
  + getCode(): int
  + getM49(): String
  + addItem(): void
  + getItem(): Item
  + clone(): Area
  + toString(): String
  + equals(): boolean
  + getItems(): Iterable<Item>
  <<abstract>> compareTo(): int

}

abstract Item {
  - code: int
  - cpc: String
  - item: String

  + getCode(): int
  + getCpc(): String
  + getItem(): String
  + addElement(): void
  + getElement(): Element
  + clone(): Item
  + toString(): String
  + equals(): boolean
  + getElements(): Iterable<Element>
  <<abstract>> compareTo(): int



}

abstract Element {
  - code: int
  - element: String

  + getCode(): int
  + getElement(): String
  + addProductionData(): void
  + getProductionData(): ProductionData
  + getMostRecentYear(): int
  + clone(): Element
  + toString(): String
  + equals(): boolean
  + valueSumTimeInterval(): double
  <<abstract>> compareTo(): int

}

class ProductionData {
  - year: int
  - value: Value

  + getYear(): int
  + getValue(): double
  + getUnit(): String
  + getFlag(): String
  + getFlagDescription(): String
  + clone(): ProductionData
  + toString(): String
  + equals(): boolean
  + compareTo(): int

}

class Value {
  - value: double
  - unit: String
  - flag: String
  - flagDescription: String

  + getValue(): double
  + getUnit(): String
  + getFlag(): String
  + getFlagDescription(): String
  + setFlagDescription(): void
  + clone(): Value
  + toString(): String
  + equals(): boolean


}

class Container {
  + addArea(): void
  + getArea(): Area
  + getAreas(): Iterable<Area>
  + getNOfAreas(): int
  + isEmpty(): boolean
  + getAreasWithConditions(): Container
  + equals(): boolean


}

Container "1" o- - "1..*" Area
Area "1" o- - "1..*" Item
Item "1" o- - "1..*" Element
Element "1" o- - "1..*" ProductionData
ProductionData "1" o- - "1" Value

class AreaByCode {
  + compareTo(): int

}
class AreaByName {
  + compareTo(): int
}
class AreaByM49 {
  + compareTo(): int
}

class ItemByCode {
  + compareTo(): int
}
class ItemByName {
  + compareTo(): int
}
class ItemByCPC {
  + compareTo(): int
}

class ElementByCode {
  + compareTo(): int
}
class ElementByName {
  + compareTo(): int
}

Area <|- - AreaByCode
Area <|- - AreaByName
Area <|- - AreaByM49

Item <|- - ItemByCode
Item <|- - ItemByName
Item <|- - ItemByCPC

Element <|- - ElementByCode
Element <|- - ElementByName

@enduml

PlantUML version 1.2022.7(Mon Aug 22 18:01:30 WEST 2022)
(GPL source distribution)
Java Runtime: OpenJDK Runtime Environment
JVM: OpenJDK 64-Bit Server VM
Default Encoding: UTF-8
Language: en
Country: US
--></g></svg>