<?xml version="1.0" encoding="UTF-8" standalone="no"?><svg xmlns="http://www.w3.org/2000/svg" xmlns:xlink="http://www.w3.org/1999/xlink" contentStyleType="text/css" height="1955px" preserveAspectRatio="none" style="width:1738px;height:1955px;background:#FFFFFF;" version="1.1" viewBox="0 0 1738 1955" width="1738px" zoomAndPan="magnify"><defs/><g><!--MD5=[7cfcec95ce8c7b3cc21f2a5540b61e10]
class Area--><g id="elem_Area"><rect codeLine="3" fill="#F1F1F1" height="308.75" id="Area" rx="2.5" ry="2.5" style="stroke:#181818;stroke-width:0.5;" width="254" x="1175" y="278"/><ellipse cx="1281.75" cy="294" fill="#A9DCDF" rx="11" ry="11" style="stroke:#181818;stroke-width:1.0;"/><path d="M1281.8594,289.3438 L1280.7031,294.4219 L1283.0313,294.4219 L1281.8594,289.3438 Z M1280.375,287.1094 L1283.3594,287.1094 L1286.7188,299.5 L1284.2656,299.5 L1283.5,296.4375 L1280.2188,296.4375 L1279.4688,299.5 L1277.0313,299.5 L1280.375,287.1094 Z " fill="#000000"/><text fill="#000000" font-family="sans-serif" font-size="14" font-style="italic" lengthAdjust="spacing" textLength="32" x="1302.25" y="298.8467">Area</text><line style="stroke:#181818;stroke-width:0.5;" x1="1176" x2="1428" y1="310" y2="310"/><text fill="#000000" font-family="sans-serif" font-size="14" lengthAdjust="spacing" textLength="84" x="1181" y="326.9951">-area: String</text><text fill="#000000" font-family="sans-serif" font-size="14" lengthAdjust="spacing" textLength="66" x="1181" y="343.292">-code: int</text><text fill="#000000" font-family="sans-serif" font-size="14" lengthAdjust="spacing" textLength="85" x="1181" y="359.5889">-m49: String</text><line style="stroke:#181818;stroke-width:0.5;" x1="1176" x2="1428" y1="366.8906" y2="366.8906"/><text fill="#000000" font-family="sans-serif" font-size="14" lengthAdjust="spacing" textLength="125" x="1181" y="383.8857">+getArea(): String</text><text fill="#000000" font-family="sans-serif" font-size="14" lengthAdjust="spacing" textLength="108" x="1181" y="400.1826">+getCode(): int</text><text fill="#000000" font-family="sans-serif" font-size="14" lengthAdjust="spacing" textLength="124" x="1181" y="416.4795">+getM49(): String</text><text fill="#000000" font-family="sans-serif" font-size="14" lengthAdjust="spacing" textLength="197" x="1181" y="432.7764">+getItems(): Iterable&lt;Item&gt;</text><text fill="#000000" font-family="sans-serif" font-size="14" lengthAdjust="spacing" textLength="4" x="1181" y="449.0732"> </text><text fill="#000000" font-family="sans-serif" font-size="14" lengthAdjust="spacing" textLength="184" x="1181" y="465.3701">+addItem(item: Item): void</text><text fill="#000000" font-family="sans-serif" font-size="14" lengthAdjust="spacing" textLength="183" x="1181" y="481.667">+getItem(item: Item): Item</text><text fill="#000000" font-family="sans-serif" font-size="14" lengthAdjust="spacing" textLength="4" x="1181" y="497.9639"> </text><text fill="#000000" font-family="sans-serif" font-size="14" lengthAdjust="spacing" textLength="100" x="1181" y="514.2607">+clone(): Area</text><text fill="#000000" font-family="sans-serif" font-size="14" lengthAdjust="spacing" textLength="125" x="1181" y="530.5576">+toString(): String</text><text fill="#000000" font-family="sans-serif" font-size="14" lengthAdjust="spacing" textLength="196" x="1181" y="546.8545">+equals(o: Object): boolean</text><text fill="#000000" font-family="sans-serif" font-size="14" lengthAdjust="spacing" textLength="4" x="1181" y="563.1514"> </text><text fill="#000000" font-family="sans-serif" font-size="14" lengthAdjust="spacing" textLength="242" x="1181" y="579.4482">«abstract» compareTo(o: Area): int</text></g><!--MD5=[44a1b4afaef76c16e6c9ec4990ad0c8d]
class Item--><g id="elem_Item"><rect codeLine="23" fill="#F1F1F1" height="308.75" id="Item" rx="2.5" ry="2.5" style="stroke:#181818;stroke-width:0.5;" width="303" x="758.5" y="647"/><ellipse cx="890.25" cy="663" fill="#A9DCDF" rx="11" ry="11" style="stroke:#181818;stroke-width:1.0;"/><path d="M890.3594,658.3438 L889.2031,663.4219 L891.5313,663.4219 L890.3594,658.3438 Z M888.875,656.1094 L891.8594,656.1094 L895.2188,668.5 L892.7656,668.5 L892,665.4375 L888.7188,665.4375 L887.9688,668.5 L885.5313,668.5 L888.875,656.1094 Z " fill="#000000"/><text fill="#000000" font-family="sans-serif" font-size="14" font-style="italic" lengthAdjust="spacing" textLength="31" x="910.75" y="667.8467">Item</text><line style="stroke:#181818;stroke-width:0.5;" x1="759.5" x2="1060.5" y1="679" y2="679"/><text fill="#000000" font-family="sans-serif" font-size="14" lengthAdjust="spacing" textLength="66" x="764.5" y="695.9951">-code: int</text><text fill="#000000" font-family="sans-serif" font-size="14" lengthAdjust="spacing" textLength="79" x="764.5" y="712.292">-cpc: String</text><text fill="#000000" font-family="sans-serif" font-size="14" lengthAdjust="spacing" textLength="84" x="764.5" y="728.5889">-item: String</text><line style="stroke:#181818;stroke-width:0.5;" x1="759.5" x2="1060.5" y1="735.8906" y2="735.8906"/><text fill="#000000" font-family="sans-serif" font-size="14" lengthAdjust="spacing" textLength="108" x="764.5" y="752.8857">+getCode(): int</text><text fill="#000000" font-family="sans-serif" font-size="14" lengthAdjust="spacing" textLength="121" x="764.5" y="769.1826">+getCpc(): String</text><text fill="#000000" font-family="sans-serif" font-size="14" lengthAdjust="spacing" textLength="124" x="764.5" y="785.4795">+getItem(): String</text><text fill="#000000" font-family="sans-serif" font-size="14" lengthAdjust="spacing" textLength="251" x="764.5" y="801.7764">+getElements(): Iterable&lt;Element&gt;</text><text fill="#000000" font-family="sans-serif" font-size="14" lengthAdjust="spacing" textLength="4" x="764.5" y="818.0732"> </text><text fill="#000000" font-family="sans-serif" font-size="14" lengthAdjust="spacing" textLength="265" x="764.5" y="834.3701">+addElement(element: Element): void</text><text fill="#000000" font-family="sans-serif" font-size="14" lengthAdjust="spacing" textLength="291" x="764.5" y="850.667">+getElement(element: Element): Element</text><text fill="#000000" font-family="sans-serif" font-size="14" lengthAdjust="spacing" textLength="4" x="764.5" y="866.9639"> </text><text fill="#000000" font-family="sans-serif" font-size="14" lengthAdjust="spacing" textLength="99" x="764.5" y="883.2607">+clone(): Item</text><text fill="#000000" font-family="sans-serif" font-size="14" lengthAdjust="spacing" textLength="125" x="764.5" y="899.5576">+toString(): String</text><text fill="#000000" font-family="sans-serif" font-size="14" lengthAdjust="spacing" textLength="196" x="764.5" y="915.8545">+equals(o: Object): boolean</text><text fill="#000000" font-family="sans-serif" font-size="14" lengthAdjust="spacing" textLength="4" x="764.5" y="932.1514"> </text><text fill="#000000" font-family="sans-serif" font-size="14" lengthAdjust="spacing" textLength="241" x="764.5" y="948.4482">«abstract» compareTo(o: Item): int</text></g><!--MD5=[95174e42ee347a14b6cb78d6855f19b5]
class Element--><g id="elem_Element"><rect codeLine="43" fill="#F1F1F1" height="292.4531" id="Element" rx="2.5" ry="2.5" style="stroke:#181818;stroke-width:0.5;" width="427" x="243.5" y="1016"/><ellipse cx="424.25" cy="1032" fill="#A9DCDF" rx="11" ry="11" style="stroke:#181818;stroke-width:1.0;"/><path d="M424.3594,1027.3438 L423.2031,1032.4219 L425.5313,1032.4219 L424.3594,1027.3438 Z M422.875,1025.1094 L425.8594,1025.1094 L429.2188,1037.5 L426.7656,1037.5 L426,1034.4375 L422.7188,1034.4375 L421.9688,1037.5 L419.5313,1037.5 L422.875,1025.1094 Z " fill="#000000"/><text fill="#000000" font-family="sans-serif" font-size="14" font-style="italic" lengthAdjust="spacing" textLength="57" x="444.75" y="1036.8467">Element</text><line style="stroke:#181818;stroke-width:0.5;" x1="244.5" x2="669.5" y1="1048" y2="1048"/><text fill="#000000" font-family="sans-serif" font-size="14" lengthAdjust="spacing" textLength="66" x="249.5" y="1064.9951">-code: int</text><text fill="#000000" font-family="sans-serif" font-size="14" lengthAdjust="spacing" textLength="111" x="249.5" y="1081.292">-element: String</text><line style="stroke:#181818;stroke-width:0.5;" x1="244.5" x2="669.5" y1="1088.5938" y2="1088.5938"/><text fill="#000000" font-family="sans-serif" font-size="14" lengthAdjust="spacing" textLength="108" x="249.5" y="1105.5889">+getCode(): int</text><text fill="#000000" font-family="sans-serif" font-size="14" lengthAdjust="spacing" textLength="151" x="249.5" y="1121.8857">+getElement(): String</text><text fill="#000000" font-family="sans-serif" font-size="14" lengthAdjust="spacing" textLength="415" x="249.5" y="1138.1826">+addProductionData(productionData: ProductionData): void</text><text fill="#000000" font-family="sans-serif" font-size="14" lengthAdjust="spacing" textLength="323" x="249.5" y="1154.4795">+getProductionData(year: int): ProductionData</text><text fill="#000000" font-family="sans-serif" font-size="14" lengthAdjust="spacing" textLength="4" x="249.5" y="1170.7764"> </text><text fill="#000000" font-family="sans-serif" font-size="14" lengthAdjust="spacing" textLength="186" x="249.5" y="1187.0732">+getMostRecentYear(): int</text><text fill="#000000" font-family="sans-serif" font-size="14" lengthAdjust="spacing" textLength="342" x="249.5" y="1203.3701">+valueSumTimeInterval(min: int, max: int): double</text><text fill="#000000" font-family="sans-serif" font-size="14" lengthAdjust="spacing" textLength="4" x="249.5" y="1219.667"> </text><text fill="#000000" font-family="sans-serif" font-size="14" lengthAdjust="spacing" textLength="126" x="249.5" y="1235.9639">+clone(): Element</text><text fill="#000000" font-family="sans-serif" font-size="14" lengthAdjust="spacing" textLength="125" x="249.5" y="1252.2607">+toString(): String</text><text fill="#000000" font-family="sans-serif" font-size="14" lengthAdjust="spacing" textLength="196" x="249.5" y="1268.5576">+equals(o: Object): boolean</text><text fill="#000000" font-family="sans-serif" font-size="14" lengthAdjust="spacing" textLength="4" x="249.5" y="1284.8545"> </text><text fill="#000000" font-family="sans-serif" font-size="14" lengthAdjust="spacing" textLength="316" x="249.5" y="1301.1514">«abstract» compareTo(element: Element): int</text></g><!--MD5=[b8fcb75de1318f131cde05def2746fc4]
class ProductionData--><g id="elem_ProductionData"><rect codeLine="62" fill="#F1F1F1" height="243.5625" id="ProductionData" rx="2.5" ry="2.5" style="stroke:#181818;stroke-width:0.5;" width="264" x="51" y="1368"/><ellipse cx="125.25" cy="1384" fill="#ADD1B2" rx="11" ry="11" style="stroke:#181818;stroke-width:1.0;"/><path d="M128.2188,1389.6406 Q127.6406,1389.9375 127,1390.0781 Q126.3594,1390.2344 125.6563,1390.2344 Q123.1563,1390.2344 121.8281,1388.5938 Q120.5156,1386.9375 120.5156,1383.8125 Q120.5156,1380.6875 121.8281,1379.0313 Q123.1563,1377.375 125.6563,1377.375 Q126.3594,1377.375 127,1377.5313 Q127.6563,1377.6875 128.2188,1377.9844 L128.2188,1380.7031 Q127.5938,1380.125 127,1379.8594 Q126.4063,1379.5781 125.7813,1379.5781 Q124.4375,1379.5781 123.75,1380.6563 Q123.0625,1381.7188 123.0625,1383.8125 Q123.0625,1385.9063 123.75,1386.9844 Q124.4375,1388.0469 125.7813,1388.0469 Q126.4063,1388.0469 127,1387.7813 Q127.5938,1387.5 128.2188,1386.9219 L128.2188,1389.6406 Z " fill="#000000"/><text fill="#000000" font-family="sans-serif" font-size="14" lengthAdjust="spacing" textLength="107" x="145.75" y="1388.8467">ProductionData</text><line style="stroke:#181818;stroke-width:0.5;" x1="52" x2="314" y1="1400" y2="1400"/><text fill="#000000" font-family="sans-serif" font-size="14" lengthAdjust="spacing" textLength="60" x="57" y="1416.9951">-year: int</text><text fill="#000000" font-family="sans-serif" font-size="14" lengthAdjust="spacing" textLength="88" x="57" y="1433.292">-value: Value</text><line style="stroke:#181818;stroke-width:0.5;" x1="52" x2="314" y1="1440.5938" y2="1440.5938"/><text fill="#000000" font-family="sans-serif" font-size="14" lengthAdjust="spacing" textLength="102" x="57" y="1457.5889">+getYear(): int</text><text fill="#000000" font-family="sans-serif" font-size="14" lengthAdjust="spacing" textLength="140" x="57" y="1473.8857">+getValue(): double</text><text fill="#000000" font-family="sans-serif" font-size="14" lengthAdjust="spacing" textLength="121" x="57" y="1490.1826">+getUnit(): String</text><text fill="#000000" font-family="sans-serif" font-size="14" lengthAdjust="spacing" textLength="122" x="57" y="1506.4795">+getFlag(): String</text><text fill="#000000" font-family="sans-serif" font-size="14" lengthAdjust="spacing" textLength="201" x="57" y="1522.7764">+getFlagDescription(): String</text><text fill="#000000" font-family="sans-serif" font-size="14" lengthAdjust="spacing" textLength="4" x="57" y="1539.0732"> </text><text fill="#000000" font-family="sans-serif" font-size="14" lengthAdjust="spacing" textLength="176" x="57" y="1555.3701">+clone(): ProductionData</text><text fill="#000000" font-family="sans-serif" font-size="14" lengthAdjust="spacing" textLength="125" x="57" y="1571.667">+toString(): String</text><text fill="#000000" font-family="sans-serif" font-size="14" lengthAdjust="spacing" textLength="196" x="57" y="1587.9639">+equals(o: Object): boolean</text><text fill="#000000" font-family="sans-serif" font-size="14" lengthAdjust="spacing" textLength="252" x="57" y="1604.2607">+compareTo(o: ProductionData): int</text></g><!--MD5=[ff3d20c1112759d46dde2fcead238479]
class Value--><g id="elem_Value"><rect codeLine="78" fill="#F1F1F1" height="276.1563" id="Value" rx="2.5" ry="2.5" style="stroke:#181818;stroke-width:0.5;" width="352" x="7" y="1672"/><ellipse cx="159.75" cy="1688" fill="#ADD1B2" rx="11" ry="11" style="stroke:#181818;stroke-width:1.0;"/><path d="M162.7188,1693.6406 Q162.1406,1693.9375 161.5,1694.0781 Q160.8594,1694.2344 160.1563,1694.2344 Q157.6563,1694.2344 156.3281,1692.5938 Q155.0156,1690.9375 155.0156,1687.8125 Q155.0156,1684.6875 156.3281,1683.0313 Q157.6563,1681.375 160.1563,1681.375 Q160.8594,1681.375 161.5,1681.5313 Q162.1563,1681.6875 162.7188,1681.9844 L162.7188,1684.7031 Q162.0938,1684.125 161.5,1683.8594 Q160.9063,1683.5781 160.2813,1683.5781 Q158.9375,1683.5781 158.25,1684.6563 Q157.5625,1685.7188 157.5625,1687.8125 Q157.5625,1689.9063 158.25,1690.9844 Q158.9375,1692.0469 160.2813,1692.0469 Q160.9063,1692.0469 161.5,1691.7813 Q162.0938,1691.5 162.7188,1690.9219 L162.7188,1693.6406 Z " fill="#000000"/><text fill="#000000" font-family="sans-serif" font-size="14" lengthAdjust="spacing" textLength="38" x="180.25" y="1692.8467">Value</text><line style="stroke:#181818;stroke-width:0.5;" x1="8" x2="358" y1="1704" y2="1704"/><text fill="#000000" font-family="sans-serif" font-size="14" lengthAdjust="spacing" textLength="98" x="13" y="1720.9951">-value: double</text><text fill="#000000" font-family="sans-serif" font-size="14" lengthAdjust="spacing" textLength="80" x="13" y="1737.292">-unit: String</text><text fill="#000000" font-family="sans-serif" font-size="14" lengthAdjust="spacing" textLength="78" x="13" y="1753.5889">-flag: String</text><text fill="#000000" font-family="sans-serif" font-size="14" lengthAdjust="spacing" textLength="157" x="13" y="1769.8857">-flagDescription: String</text><line style="stroke:#181818;stroke-width:0.5;" x1="8" x2="358" y1="1777.1875" y2="1777.1875"/><text fill="#000000" font-family="sans-serif" font-size="14" lengthAdjust="spacing" textLength="140" x="13" y="1794.1826">+getValue(): double</text><text fill="#000000" font-family="sans-serif" font-size="14" lengthAdjust="spacing" textLength="121" x="13" y="1810.4795">+getUnit(): String</text><text fill="#000000" font-family="sans-serif" font-size="14" lengthAdjust="spacing" textLength="122" x="13" y="1826.7764">+getFlag(): String</text><text fill="#000000" font-family="sans-serif" font-size="14" lengthAdjust="spacing" textLength="201" x="13" y="1843.0732">+getFlagDescription(): String</text><text fill="#000000" font-family="sans-serif" font-size="14" lengthAdjust="spacing" textLength="4" x="13" y="1859.3701"> </text><text fill="#000000" font-family="sans-serif" font-size="14" lengthAdjust="spacing" textLength="340" x="13" y="1875.667">+setFlagDescription(flagDescription: String): void</text><text fill="#000000" font-family="sans-serif" font-size="14" lengthAdjust="spacing" textLength="4" x="13" y="1891.9639"> </text><text fill="#000000" font-family="sans-serif" font-size="14" lengthAdjust="spacing" textLength="107" x="13" y="1908.2607">+clone(): Value</text><text fill="#000000" font-family="sans-serif" font-size="14" lengthAdjust="spacing" textLength="125" x="13" y="1924.5576">+toString(): String</text><text fill="#000000" font-family="sans-serif" font-size="14" lengthAdjust="spacing" textLength="196" x="13" y="1940.8545">+equals(o: Object): boolean</text></g><!--MD5=[e9a58730c562b34349daa605d1ed6662]
class Container--><g id="elem_Container"><rect codeLine="96" fill="#F1F1F1" height="210.9688" id="Container" rx="2.5" ry="2.5" style="stroke:#181818;stroke-width:0.5;" width="539" x="1032.5" y="7"/><ellipse cx="1264.25" cy="23" fill="#ADD1B2" rx="11" ry="11" style="stroke:#181818;stroke-width:1.0;"/><path d="M1267.2188,28.6406 Q1266.6406,28.9375 1266,29.0781 Q1265.3594,29.2344 1264.6563,29.2344 Q1262.1563,29.2344 1260.8281,27.5938 Q1259.5156,25.9375 1259.5156,22.8125 Q1259.5156,19.6875 1260.8281,18.0313 Q1262.1563,16.375 1264.6563,16.375 Q1265.3594,16.375 1266,16.5313 Q1266.6563,16.6875 1267.2188,16.9844 L1267.2188,19.7031 Q1266.5938,19.125 1266,18.8594 Q1265.4063,18.5781 1264.7813,18.5781 Q1263.4375,18.5781 1262.75,19.6563 Q1262.0625,20.7188 1262.0625,22.8125 Q1262.0625,24.9063 1262.75,25.9844 Q1263.4375,27.0469 1264.7813,27.0469 Q1265.4063,27.0469 1266,26.7813 Q1266.5938,26.5 1267.2188,25.9219 L1267.2188,28.6406 Z " fill="#000000"/><text fill="#000000" font-family="sans-serif" font-size="14" lengthAdjust="spacing" textLength="67" x="1284.75" y="27.8467">Container</text><line style="stroke:#181818;stroke-width:0.5;" x1="1033.5" x2="1570.5" y1="39" y2="39"/><line style="stroke:#181818;stroke-width:0.5;" x1="1033.5" x2="1570.5" y1="47" y2="47"/><text fill="#000000" font-family="sans-serif" font-size="14" lengthAdjust="spacing" textLength="186" x="1038.5" y="63.9951">+addArea(area: Area): void</text><text fill="#000000" font-family="sans-serif" font-size="14" lengthAdjust="spacing" textLength="186" x="1038.5" y="80.292">+getArea(area: Area): Area</text><text fill="#000000" font-family="sans-serif" font-size="14" lengthAdjust="spacing" textLength="199" x="1038.5" y="96.5889">+getAreas(): Iterable&lt;Area&gt;</text><text fill="#000000" font-family="sans-serif" font-size="14" lengthAdjust="spacing" textLength="4" x="1038.5" y="112.8857"> </text><text fill="#000000" font-family="sans-serif" font-size="14" lengthAdjust="spacing" textLength="135" x="1038.5" y="129.1826">+getNOfAreas(): int</text><text fill="#000000" font-family="sans-serif" font-size="14" lengthAdjust="spacing" textLength="464" x="1038.5" y="145.4795">+getAreasWithConditions(item: Item, element: Element): Container</text><text fill="#000000" font-family="sans-serif" font-size="14" lengthAdjust="spacing" textLength="527" x="1038.5" y="161.7764">+getAreasWithConditions(item: Item, element: Element, year: int): Container</text><text fill="#000000" font-family="sans-serif" font-size="14" lengthAdjust="spacing" textLength="4" x="1038.5" y="178.0732"> </text><text fill="#000000" font-family="sans-serif" font-size="14" lengthAdjust="spacing" textLength="141" x="1038.5" y="194.3701">+isEmpty(): boolean</text><text fill="#000000" font-family="sans-serif" font-size="14" lengthAdjust="spacing" textLength="133" x="1038.5" y="210.667">+equals(): boolean</text></g><!--MD5=[256f74ac2914a5f218a0b58574b5fa29]
class AreaByCode--><g id="elem_AreaByCode"><rect codeLine="115" fill="#F1F1F1" height="64.2969" id="AreaByCode" rx="2.5" ry="2.5" style="stroke:#181818;stroke-width:0.5;" width="188" x="1097" y="769.5"/><ellipse cx="1144.25" cy="785.5" fill="#ADD1B2" rx="11" ry="11" style="stroke:#181818;stroke-width:1.0;"/><path d="M1147.2188,791.1406 Q1146.6406,791.4375 1146,791.5781 Q1145.3594,791.7344 1144.6563,791.7344 Q1142.1563,791.7344 1140.8281,790.0938 Q1139.5156,788.4375 1139.5156,785.3125 Q1139.5156,782.1875 1140.8281,780.5313 Q1142.1563,778.875 1144.6563,778.875 Q1145.3594,778.875 1146,779.0313 Q1146.6563,779.1875 1147.2188,779.4844 L1147.2188,782.2031 Q1146.5938,781.625 1146,781.3594 Q1145.4063,781.0781 1144.7813,781.0781 Q1143.4375,781.0781 1142.75,782.1563 Q1142.0625,783.2188 1142.0625,785.3125 Q1142.0625,787.4063 1142.75,788.4844 Q1143.4375,789.5469 1144.7813,789.5469 Q1145.4063,789.5469 1146,789.2813 Q1146.5938,789 1147.2188,788.4219 L1147.2188,791.1406 Z " fill="#000000"/><text fill="#000000" font-family="sans-serif" font-size="14" lengthAdjust="spacing" textLength="85" x="1164.75" y="790.3467">AreaByCode</text><line style="stroke:#181818;stroke-width:0.5;" x1="1098" x2="1284" y1="801.5" y2="801.5"/><line style="stroke:#181818;stroke-width:0.5;" x1="1098" x2="1284" y1="809.5" y2="809.5"/><text fill="#000000" font-family="sans-serif" font-size="14" lengthAdjust="spacing" textLength="176" x="1103" y="826.4951">+compareTo(o: Area): int</text></g><!--MD5=[e22e74e657fa00d9ea3f9aba06481f5f]
class AreaByName--><g id="elem_AreaByName"><rect codeLine="119" fill="#F1F1F1" height="64.2969" id="AreaByName" rx="2.5" ry="2.5" style="stroke:#181818;stroke-width:0.5;" width="188" x="1320" y="769.5"/><ellipse cx="1365.75" cy="785.5" fill="#ADD1B2" rx="11" ry="11" style="stroke:#181818;stroke-width:1.0;"/><path d="M1368.7188,791.1406 Q1368.1406,791.4375 1367.5,791.5781 Q1366.8594,791.7344 1366.1563,791.7344 Q1363.6563,791.7344 1362.3281,790.0938 Q1361.0156,788.4375 1361.0156,785.3125 Q1361.0156,782.1875 1362.3281,780.5313 Q1363.6563,778.875 1366.1563,778.875 Q1366.8594,778.875 1367.5,779.0313 Q1368.1563,779.1875 1368.7188,779.4844 L1368.7188,782.2031 Q1368.0938,781.625 1367.5,781.3594 Q1366.9063,781.0781 1366.2813,781.0781 Q1364.9375,781.0781 1364.25,782.1563 Q1363.5625,783.2188 1363.5625,785.3125 Q1363.5625,787.4063 1364.25,788.4844 Q1364.9375,789.5469 1366.2813,789.5469 Q1366.9063,789.5469 1367.5,789.2813 Q1368.0938,789 1368.7188,788.4219 L1368.7188,791.1406 Z " fill="#000000"/><text fill="#000000" font-family="sans-serif" font-size="14" lengthAdjust="spacing" textLength="88" x="1386.25" y="790.3467">AreaByName</text><line style="stroke:#181818;stroke-width:0.5;" x1="1321" x2="1507" y1="801.5" y2="801.5"/><line style="stroke:#181818;stroke-width:0.5;" x1="1321" x2="1507" y1="809.5" y2="809.5"/><text fill="#000000" font-family="sans-serif" font-size="14" lengthAdjust="spacing" textLength="176" x="1326" y="826.4951">+compareTo(o: Area): int</text></g><!--MD5=[cc9b890662c0882cad76dd03e0b67580]
class AreaByM49--><g id="elem_AreaByM49"><rect codeLine="122" fill="#F1F1F1" height="64.2969" id="AreaByM49" rx="2.5" ry="2.5" style="stroke:#181818;stroke-width:0.5;" width="188" x="1543" y="769.5"/><ellipse cx="1593.75" cy="785.5" fill="#ADD1B2" rx="11" ry="11" style="stroke:#181818;stroke-width:1.0;"/><path d="M1596.7188,791.1406 Q1596.1406,791.4375 1595.5,791.5781 Q1594.8594,791.7344 1594.1563,791.7344 Q1591.6563,791.7344 1590.3281,790.0938 Q1589.0156,788.4375 1589.0156,785.3125 Q1589.0156,782.1875 1590.3281,780.5313 Q1591.6563,778.875 1594.1563,778.875 Q1594.8594,778.875 1595.5,779.0313 Q1596.1563,779.1875 1596.7188,779.4844 L1596.7188,782.2031 Q1596.0938,781.625 1595.5,781.3594 Q1594.9063,781.0781 1594.2813,781.0781 Q1592.9375,781.0781 1592.25,782.1563 Q1591.5625,783.2188 1591.5625,785.3125 Q1591.5625,787.4063 1592.25,788.4844 Q1592.9375,789.5469 1594.2813,789.5469 Q1594.9063,789.5469 1595.5,789.2813 Q1596.0938,789 1596.7188,788.4219 L1596.7188,791.1406 Z " fill="#000000"/><text fill="#000000" font-family="sans-serif" font-size="14" lengthAdjust="spacing" textLength="78" x="1614.25" y="790.3467">AreaByM49</text><line style="stroke:#181818;stroke-width:0.5;" x1="1544" x2="1730" y1="801.5" y2="801.5"/><line style="stroke:#181818;stroke-width:0.5;" x1="1544" x2="1730" y1="809.5" y2="809.5"/><text fill="#000000" font-family="sans-serif" font-size="14" lengthAdjust="spacing" textLength="176" x="1549" y="826.4951">+compareTo(o: Area): int</text></g><!--MD5=[096c1d353958632cd3573d38a361ab16]
class ItemByCode--><g id="elem_ItemByCode"><rect codeLine="126" fill="#F1F1F1" height="64.2969" id="ItemByCode" rx="2.5" ry="2.5" style="stroke:#181818;stroke-width:0.5;" width="187" x="705.5" y="1130"/><ellipse cx="752.75" cy="1146" fill="#ADD1B2" rx="11" ry="11" style="stroke:#181818;stroke-width:1.0;"/><path d="M755.7188,1151.6406 Q755.1406,1151.9375 754.5,1152.0781 Q753.8594,1152.2344 753.1563,1152.2344 Q750.6563,1152.2344 749.3281,1150.5938 Q748.0156,1148.9375 748.0156,1145.8125 Q748.0156,1142.6875 749.3281,1141.0313 Q750.6563,1139.375 753.1563,1139.375 Q753.8594,1139.375 754.5,1139.5313 Q755.1563,1139.6875 755.7188,1139.9844 L755.7188,1142.7031 Q755.0938,1142.125 754.5,1141.8594 Q753.9063,1141.5781 753.2813,1141.5781 Q751.9375,1141.5781 751.25,1142.6563 Q750.5625,1143.7188 750.5625,1145.8125 Q750.5625,1147.9063 751.25,1148.9844 Q751.9375,1150.0469 753.2813,1150.0469 Q753.9063,1150.0469 754.5,1149.7813 Q755.0938,1149.5 755.7188,1148.9219 L755.7188,1151.6406 Z " fill="#000000"/><text fill="#000000" font-family="sans-serif" font-size="14" lengthAdjust="spacing" textLength="84" x="773.25" y="1150.8467">ItemByCode</text><line style="stroke:#181818;stroke-width:0.5;" x1="706.5" x2="891.5" y1="1162" y2="1162"/><line style="stroke:#181818;stroke-width:0.5;" x1="706.5" x2="891.5" y1="1170" y2="1170"/><text fill="#000000" font-family="sans-serif" font-size="14" lengthAdjust="spacing" textLength="175" x="711.5" y="1186.9951">+compareTo(o: Item): int</text></g><!--MD5=[d9a39dc1736df04be607a6e95ba03ef9]
class ItemByName--><g id="elem_ItemByName"><rect codeLine="129" fill="#F1F1F1" height="64.2969" id="ItemByName" rx="2.5" ry="2.5" style="stroke:#181818;stroke-width:0.5;" width="187" x="927.5" y="1130"/><ellipse cx="973.25" cy="1146" fill="#ADD1B2" rx="11" ry="11" style="stroke:#181818;stroke-width:1.0;"/><path d="M976.2188,1151.6406 Q975.6406,1151.9375 975,1152.0781 Q974.3594,1152.2344 973.6563,1152.2344 Q971.1563,1152.2344 969.8281,1150.5938 Q968.5156,1148.9375 968.5156,1145.8125 Q968.5156,1142.6875 969.8281,1141.0313 Q971.1563,1139.375 973.6563,1139.375 Q974.3594,1139.375 975,1139.5313 Q975.6563,1139.6875 976.2188,1139.9844 L976.2188,1142.7031 Q975.5938,1142.125 975,1141.8594 Q974.4063,1141.5781 973.7813,1141.5781 Q972.4375,1141.5781 971.75,1142.6563 Q971.0625,1143.7188 971.0625,1145.8125 Q971.0625,1147.9063 971.75,1148.9844 Q972.4375,1150.0469 973.7813,1150.0469 Q974.4063,1150.0469 975,1149.7813 Q975.5938,1149.5 976.2188,1148.9219 L976.2188,1151.6406 Z " fill="#000000"/><text fill="#000000" font-family="sans-serif" font-size="14" lengthAdjust="spacing" textLength="87" x="993.75" y="1150.8467">ItemByName</text><line style="stroke:#181818;stroke-width:0.5;" x1="928.5" x2="1113.5" y1="1162" y2="1162"/><line style="stroke:#181818;stroke-width:0.5;" x1="928.5" x2="1113.5" y1="1170" y2="1170"/><text fill="#000000" font-family="sans-serif" font-size="14" lengthAdjust="spacing" textLength="175" x="933.5" y="1186.9951">+compareTo(o: Item): int</text></g><!--MD5=[1eb22b894ae866b9827c5e3aa2f6c3be]
class ItemByCPC--><g id="elem_ItemByCPC"><rect codeLine="132" fill="#F1F1F1" height="64.2969" id="ItemByCPC" rx="2.5" ry="2.5" style="stroke:#181818;stroke-width:0.5;" width="187" x="1149.5" y="1130"/><ellipse cx="1200.75" cy="1146" fill="#ADD1B2" rx="11" ry="11" style="stroke:#181818;stroke-width:1.0;"/><path d="M1203.7188,1151.6406 Q1203.1406,1151.9375 1202.5,1152.0781 Q1201.8594,1152.2344 1201.1563,1152.2344 Q1198.6563,1152.2344 1197.3281,1150.5938 Q1196.0156,1148.9375 1196.0156,1145.8125 Q1196.0156,1142.6875 1197.3281,1141.0313 Q1198.6563,1139.375 1201.1563,1139.375 Q1201.8594,1139.375 1202.5,1139.5313 Q1203.1563,1139.6875 1203.7188,1139.9844 L1203.7188,1142.7031 Q1203.0938,1142.125 1202.5,1141.8594 Q1201.9063,1141.5781 1201.2813,1141.5781 Q1199.9375,1141.5781 1199.25,1142.6563 Q1198.5625,1143.7188 1198.5625,1145.8125 Q1198.5625,1147.9063 1199.25,1148.9844 Q1199.9375,1150.0469 1201.2813,1150.0469 Q1201.9063,1150.0469 1202.5,1149.7813 Q1203.0938,1149.5 1203.7188,1148.9219 L1203.7188,1151.6406 Z " fill="#000000"/><text fill="#000000" font-family="sans-serif" font-size="14" lengthAdjust="spacing" textLength="76" x="1221.25" y="1150.8467">ItemByCPC</text><line style="stroke:#181818;stroke-width:0.5;" x1="1150.5" x2="1335.5" y1="1162" y2="1162"/><line style="stroke:#181818;stroke-width:0.5;" x1="1150.5" x2="1335.5" y1="1170" y2="1170"/><text fill="#000000" font-family="sans-serif" font-size="14" lengthAdjust="spacing" textLength="175" x="1155.5" y="1186.9951">+compareTo(o: Item): int</text></g><!--MD5=[4d6a461d28bef07c900e5de1eaf3e031]
class ElementByCode--><g id="elem_ElementByCode"><rect codeLine="136" fill="#F1F1F1" height="64.2969" id="ElementByCode" rx="2.5" ry="2.5" style="stroke:#181818;stroke-width:0.5;" width="214" x="350" y="1458"/><ellipse cx="397.25" cy="1474" fill="#ADD1B2" rx="11" ry="11" style="stroke:#181818;stroke-width:1.0;"/><path d="M400.2188,1479.6406 Q399.6406,1479.9375 399,1480.0781 Q398.3594,1480.2344 397.6563,1480.2344 Q395.1563,1480.2344 393.8281,1478.5938 Q392.5156,1476.9375 392.5156,1473.8125 Q392.5156,1470.6875 393.8281,1469.0313 Q395.1563,1467.375 397.6563,1467.375 Q398.3594,1467.375 399,1467.5313 Q399.6563,1467.6875 400.2188,1467.9844 L400.2188,1470.7031 Q399.5938,1470.125 399,1469.8594 Q398.4063,1469.5781 397.7813,1469.5781 Q396.4375,1469.5781 395.75,1470.6563 Q395.0625,1471.7188 395.0625,1473.8125 Q395.0625,1475.9063 395.75,1476.9844 Q396.4375,1478.0469 397.7813,1478.0469 Q398.4063,1478.0469 399,1477.7813 Q399.5938,1477.5 400.2188,1476.9219 L400.2188,1479.6406 Z " fill="#000000"/><text fill="#000000" font-family="sans-serif" font-size="14" lengthAdjust="spacing" textLength="111" x="417.75" y="1478.8467">ElementByCode</text><line style="stroke:#181818;stroke-width:0.5;" x1="351" x2="563" y1="1490" y2="1490"/><line style="stroke:#181818;stroke-width:0.5;" x1="351" x2="563" y1="1498" y2="1498"/><text fill="#000000" font-family="sans-serif" font-size="14" lengthAdjust="spacing" textLength="202" x="356" y="1514.9951">+compareTo(o: Element): int</text></g><!--MD5=[a1584512917ccd697b37dcf38fbf733f]
class ElementByName--><g id="elem_ElementByName"><rect codeLine="139" fill="#F1F1F1" height="64.2969" id="ElementByName" rx="2.5" ry="2.5" style="stroke:#181818;stroke-width:0.5;" width="214" x="599" y="1458"/><ellipse cx="644.75" cy="1474" fill="#ADD1B2" rx="11" ry="11" style="stroke:#181818;stroke-width:1.0;"/><path d="M647.7188,1479.6406 Q647.1406,1479.9375 646.5,1480.0781 Q645.8594,1480.2344 645.1563,1480.2344 Q642.6563,1480.2344 641.3281,1478.5938 Q640.0156,1476.9375 640.0156,1473.8125 Q640.0156,1470.6875 641.3281,1469.0313 Q642.6563,1467.375 645.1563,1467.375 Q645.8594,1467.375 646.5,1467.5313 Q647.1563,1467.6875 647.7188,1467.9844 L647.7188,1470.7031 Q647.0938,1470.125 646.5,1469.8594 Q645.9063,1469.5781 645.2813,1469.5781 Q643.9375,1469.5781 643.25,1470.6563 Q642.5625,1471.7188 642.5625,1473.8125 Q642.5625,1475.9063 643.25,1476.9844 Q643.9375,1478.0469 645.2813,1478.0469 Q645.9063,1478.0469 646.5,1477.7813 Q647.0938,1477.5 647.7188,1476.9219 L647.7188,1479.6406 Z " fill="#000000"/><text fill="#000000" font-family="sans-serif" font-size="14" lengthAdjust="spacing" textLength="114" x="665.25" y="1478.8467">ElementByName</text><line style="stroke:#181818;stroke-width:0.5;" x1="600" x2="812" y1="1490" y2="1490"/><line style="stroke:#181818;stroke-width:0.5;" x1="600" x2="812" y1="1498" y2="1498"/><text fill="#000000" font-family="sans-serif" font-size="14" lengthAdjust="spacing" textLength="202" x="605" y="1514.9951">+compareTo(o: Element): int</text></g><!--MD5=[5870401109a993a56aba4161d22f2fd5]
reverse link Container to Area--><g id="link_Container_Area"><path codeLine="109" d="M1302,231.28 C1302,246.49 1302,262.24 1302,277.92 " fill="none" id="Container-backto-Area" style="stroke:#181818;stroke-width:1.0;"/><polygon fill="none" points="1302,218.07,1298,224.07,1302,230.07,1306,224.07,1302,218.07" style="stroke:#181818;stroke-width:1.0;"/><text fill="#000000" font-family="sans-serif" font-size="13" lengthAdjust="spacing" textLength="8" x="1293.7188" y="238.0929">1</text><text fill="#000000" font-family="sans-serif" font-size="13" lengthAdjust="spacing" textLength="23" x="1278.443" y="267.1454">1..*</text></g><!--MD5=[6c29be40304d7b2cf38ce1d0afa91f78]
reverse link Area to Item--><g id="link_Area_Item"><path codeLine="110" d="M1165.18,561.59 C1131.77,592.87 1095.82,626.53 1061.76,658.42 " fill="none" id="Area-backto-Item" style="stroke:#181818;stroke-width:1.0;"/><polygon fill="none" points="1175,552.4,1167.8857,553.5773,1166.2361,560.5972,1173.3505,559.4199,1175,552.4" style="stroke:#181818;stroke-width:1.0;"/><text fill="#000000" font-family="sans-serif" font-size="13" lengthAdjust="spacing" textLength="8" x="1159.0172" y="556.3279">1</text><text fill="#000000" font-family="sans-serif" font-size="13" lengthAdjust="spacing" textLength="23" x="1069.6679" y="648.2024">1..*</text></g><!--MD5=[d18904703c8c98976e20fa5fa8500b22]
reverse link Item to Element--><g id="link_Item_Element"><path codeLine="111" d="M747.95,930.74 C713.08,958.34 675.98,987.7 640.36,1015.89 " fill="none" id="Item-backto-Element" style="stroke:#181818;stroke-width:1.0;"/><polygon fill="none" points="758.21,922.62,751.0223,923.2003,748.7934,930.0583,755.9811,929.478,758.21,922.62" style="stroke:#181818;stroke-width:1.0;"/><text fill="#000000" font-family="sans-serif" font-size="13" lengthAdjust="spacing" textLength="8" x="742.6639" y="925.1996">1</text><text fill="#000000" font-family="sans-serif" font-size="13" lengthAdjust="spacing" textLength="23" x="626.2215" y="1005.0281">1..*</text></g><!--MD5=[1b6b8f61202d195e1b09f9c6ba3727e9]
reverse link Element to ProductionData--><g id="link_Element_ProductionData"><path codeLine="112" d="M326.19,1318.63 C312.31,1335.15 298.34,1351.78 284.85,1367.82 " fill="none" id="Element-backto-ProductionData" style="stroke:#181818;stroke-width:1.0;"/><polygon fill="none" points="334.82,1308.36,327.8974,1310.3794,327.0989,1317.5461,334.0215,1315.5268,334.82,1308.36" style="stroke:#181818;stroke-width:1.0;"/><text fill="#000000" font-family="sans-serif" font-size="13" lengthAdjust="spacing" textLength="8" x="320.3138" y="1328.352">1</text><text fill="#000000" font-family="sans-serif" font-size="13" lengthAdjust="spacing" textLength="23" x="267.3557" y="1357.0019">1..*</text></g><!--MD5=[7b8a78f78d3d6f1ca4af9de371d37525]
reverse link ProductionData to Value--><g id="link_ProductionData_Value"><path codeLine="113" d="M183,1625.54 C183,1640.91 183,1656.59 183,1672 " fill="none" id="ProductionData-backto-Value" style="stroke:#181818;stroke-width:1.0;"/><polygon fill="none" points="183,1612.13,179,1618.13,183,1624.13,187,1618.13,183,1612.13" style="stroke:#181818;stroke-width:1.0;"/><text fill="#000000" font-family="sans-serif" font-size="13" lengthAdjust="spacing" textLength="8" x="174.7688" y="1631.7076">1</text><text fill="#000000" font-family="sans-serif" font-size="13" lengthAdjust="spacing" textLength="8" x="174.7813" y="1661.1092">1</text></g><!--MD5=[ce0209fe1a542dc98569a71cd0d28211]
reverse link Area to AreaByCode--><g id="link_Area_AreaByCode"><path codeLine="143" d="M1249.75,606.25 C1230.93,668.49 1211.6,732.38 1200.48,769.16 " fill="none" id="Area-backto-AreaByCode" style="stroke:#181818;stroke-width:1.0;"/><polygon fill="none" points="1243.08,604.13,1255.57,587.01,1256.48,608.18,1243.08,604.13" style="stroke:#181818;stroke-width:1.0;"/></g><!--MD5=[6efa15bb694f9f1a0eab23876ed725bb]
reverse link Area to AreaByName--><g id="link_Area_AreaByName"><path codeLine="144" d="M1354.72,606.25 C1373.71,668.49 1393.21,732.38 1404.44,769.16 " fill="none" id="Area-backto-AreaByName" style="stroke:#181818;stroke-width:1.0;"/><polygon fill="none" points="1347.99,608.19,1348.85,587.01,1361.38,604.1,1347.99,608.19" style="stroke:#181818;stroke-width:1.0;"/></g><!--MD5=[6316904a32b66df9855e31e396a46007]
reverse link Area to AreaByM49--><g id="link_Area_AreaByM49"><path codeLine="145" d="M1443.94,561.21 C1472.09,588.61 1500.73,618.05 1526,647 C1560.82,686.89 1595.75,737.32 1616.87,769.25 " fill="none" id="Area-backto-AreaByM49" style="stroke:#181818;stroke-width:1.0;"/><polygon fill="none" points="1438.82,566.01,1429.28,547.09,1448.54,555.93,1438.82,566.01" style="stroke:#181818;stroke-width:1.0;"/></g><!--MD5=[6e17bb55d2301a69299beee231afb450]
reverse link Item to ItemByCode--><g id="link_Item_ItemByCode"><path codeLine="147" d="M856.52,975.24 C838.2,1034.39 819.59,1094.49 808.68,1129.73 " fill="none" id="Item-backto-ItemByCode" style="stroke:#181818;stroke-width:1.0;"/><polygon fill="none" points="849.84,973.13,862.44,956.1,863.21,977.27,849.84,973.13" style="stroke:#181818;stroke-width:1.0;"/></g><!--MD5=[0a07581afb803209e583e45fc5d0a2b6]
reverse link Item to ItemByName--><g id="link_Item_ItemByName"><path codeLine="148" d="M963.48,975.24 C981.8,1034.39 1000.41,1094.49 1011.32,1129.73 " fill="none" id="Item-backto-ItemByName" style="stroke:#181818;stroke-width:1.0;"/><polygon fill="none" points="956.79,977.27,957.56,956.1,970.16,973.13,956.79,977.27" style="stroke:#181818;stroke-width:1.0;"/></g><!--MD5=[8ab5d3cdcc87b549f55f2f2a7313b4bf]
reverse link Item to ItemByCPC--><g id="link_Item_ItemByCPC"><path codeLine="149" d="M1076.18,956.91 C1095.45,976.38 1114.46,996.36 1132,1016 C1165.37,1053.36 1199.83,1099.83 1221.33,1129.94 " fill="none" id="Item-backto-ItemByCPC" style="stroke:#181818;stroke-width:1.0;"/><polygon fill="none" points="1070.96,961.58,1061.78,942.49,1080.86,951.69,1070.96,961.58" style="stroke:#181818;stroke-width:1.0;"/></g><!--MD5=[7a9d3c32efbcd1e188622f4e475a2932]
reverse link Element to ElementByCode--><g id="link_Element_ElementByCode"><path codeLine="151" d="M457,1328.46 C457,1378.07 457,1427.38 457,1457.99 " fill="none" id="Element-backto-ElementByCode" style="stroke:#181818;stroke-width:1.0;"/><polygon fill="none" points="450,1328.36,457,1308.36,464,1328.36,450,1328.36" style="stroke:#181818;stroke-width:1.0;"/></g><!--MD5=[fd17a447203dffeed2c1cf5ddbc9ee2a]
reverse link Element to ElementByName--><g id="link_Element_ElementByName"><path codeLine="152" d="M580.36,1324.5 C619.26,1375.44 658.31,1426.56 682.32,1457.99 " fill="none" id="Element-backto-ElementByName" style="stroke:#181818;stroke-width:1.0;"/><polygon fill="none" points="574.6,1328.5,568.03,1308.36,585.73,1320.01,574.6,1328.5" style="stroke:#181818;stroke-width:1.0;"/></g><!--MD5=[2db213223c3fab97e20d1e3dcf9a8c06]
@startuml CD
skinparam classAttributeIconSize 0

abstract Area {
  - area: String
  - code: int
  - m49: String

  + getArea(): String
  + getCode(): int
  + getM49(): String
  + getItems(): Iterable<Item>

  + addItem(item: Item): void
  + getItem(item: Item): Item

  + clone(): Area
  + toString(): String
  + equals(o: Object): boolean

  <<abstract>> compareTo(o: Area): int
}

abstract Item {
  - code: int
  - cpc: String
  - item: String

  + getCode(): int
  + getCpc(): String
  + getItem(): String
  + getElements(): Iterable<Element>

  + addElement(element: Element): void
  + getElement(element: Element): Element

  + clone(): Item
  + toString(): String
  + equals(o: Object): boolean

  <<abstract>> compareTo(o: Item): int
}

abstract Element {
  - code: int
  - element: String

  + getCode(): int
  + getElement(): String
  + addProductionData(productionData: ProductionData): void
  + getProductionData(year: int): ProductionData

  + getMostRecentYear(): int
  + valueSumTimeInterval(min: int, max: int): double

  + clone(): Element
  + toString(): String
  + equals(o: Object): boolean

  <<abstract>> compareTo(element: Element): int
}

class ProductionData {
  - year: int
  - value: Value

  + getYear(): int
  + getValue(): double
  + getUnit(): String
  + getFlag(): String
  + getFlagDescription(): String

  + clone(): ProductionData
  + toString(): String
  + equals(o: Object): boolean
  + compareTo(o: ProductionData): int
}

class Value {
  - value: double
  - unit: String
  - flag: String
  - flagDescription: String

  + getValue(): double
  + getUnit(): String
  + getFlag(): String
  + getFlagDescription(): String

  + setFlagDescription(flagDescription: String): void

  + clone(): Value
  + toString(): String
  + equals(o: Object): boolean
}

class Container {
  + addArea(area: Area): void
  + getArea(area: Area): Area
  + getAreas(): Iterable<Area>

  + getNOfAreas(): int
  + getAreasWithConditions(item: Item, element: Element): Container
  + getAreasWithConditions(item: Item, element: Element, year: int): Container

  + isEmpty(): boolean
  + equals(): boolean
}

Container "1" o- - "1..*" Area
Area "1" o- - "1..*" Item
Item "1" o- - "1..*" Element
Element "1" o- - "1..*" ProductionData
ProductionData "1" o- - "1" Value

class AreaByCode {
  + compareTo(o: Area): int

}
class AreaByName {
  + compareTo(o: Area): int
}
class AreaByM49 {
  + compareTo(o: Area): int
}

class ItemByCode {
  + compareTo(o: Item): int
}
class ItemByName {
  + compareTo(o: Item): int
}
class ItemByCPC {
  + compareTo(o: Item): int
}

class ElementByCode {
  + compareTo(o: Element): int
}
class ElementByName {
  + compareTo(o: Element): int
}

Area <|- - AreaByCode
Area <|- - AreaByName
Area <|- - AreaByM49

Item <|- - ItemByCode
Item <|- - ItemByName
Item <|- - ItemByCPC

Element <|- - ElementByCode
Element <|- - ElementByName

@enduml

PlantUML version 1.2022.7(Mon Aug 22 18:01:30 WEST 2022)
(GPL source distribution)
Java Runtime: OpenJDK Runtime Environment
JVM: OpenJDK 64-Bit Server VM
Default Encoding: UTF-8
Language: en
Country: US
--></g></svg>